<svg width="140" height="76" viewBox="0 0 140 76" fill="none" xmlns="http://www.w3.org/2000/svg">
<rect width="140" height="76" rx="10" fill="#D7BB4E"/>
<g filter="url(#filter0_i_118_128)">
<path d="M21.2727 33H13.0227V9.72727H21.3409C23.6818 9.72727 25.697 10.1932 27.3864 11.125C29.0758 12.0492 30.375 13.3788 31.2841 15.1136C32.2008 16.8485 32.6591 18.9242 32.6591 21.3409C32.6591 23.7652 32.2008 25.8485 31.2841 27.5909C30.375 29.3333 29.0682 30.6705 27.3636 31.6023C25.6667 32.5341 23.6364 33 21.2727 33ZM17.9432 28.7841H21.0682C22.5227 28.7841 23.7462 28.5265 24.7386 28.0114C25.7386 27.4886 26.4886 26.6818 26.9886 25.5909C27.4962 24.4924 27.75 23.0758 27.75 21.3409C27.75 19.6212 27.4962 18.2159 26.9886 17.125C26.4886 16.0341 25.7424 15.2311 24.75 14.7159C23.7576 14.2008 22.5341 13.9432 21.0795 13.9432H17.9432V28.7841ZM36.304 33V9.72727H45.4858C47.2434 9.72727 48.7434 10.0417 49.9858 10.6705C51.2358 11.2917 52.1866 12.1742 52.8381 13.3182C53.4972 14.4545 53.8267 15.7917 53.8267 17.3295C53.8267 18.875 53.4934 20.2045 52.8267 21.3182C52.16 22.4242 51.1941 23.2727 49.929 23.8636C48.6714 24.4545 47.1487 24.75 45.3608 24.75H39.2131V20.7955H44.5653C45.5047 20.7955 46.285 20.6667 46.9062 20.4091C47.5275 20.1515 47.9896 19.7652 48.2926 19.25C48.6032 18.7348 48.7585 18.0947 48.7585 17.3295C48.7585 16.5568 48.6032 15.9053 48.2926 15.375C47.9896 14.8447 47.5237 14.4432 46.8949 14.1705C46.2737 13.8902 45.4896 13.75 44.5426 13.75H41.2244V33H36.304ZM48.8722 22.4091L54.6562 33H49.2244L43.5653 22.4091H48.8722ZM62.2244 9.72727V33H57.304V9.72727H62.2244ZM85.7386 9.72727V33H81.4886L71.3636 18.3523H71.1932V33H66.2727V9.72727H70.5909L80.6364 24.3636H80.8409V9.72727H85.7386ZM89.804 33V9.72727H94.7244V19.9886H95.0312L103.406 9.72727H109.304L100.668 20.1477L109.406 33H103.52L97.1449 23.4318L94.7244 26.3864V33H89.804ZM124.304 16.4205C124.213 15.5038 123.823 14.7917 123.134 14.2841C122.444 13.7765 121.509 13.5227 120.327 13.5227C119.524 13.5227 118.846 13.6364 118.293 13.8636C117.74 14.0833 117.315 14.3902 117.02 14.7841C116.732 15.178 116.588 15.625 116.588 16.125C116.573 16.5417 116.66 16.9053 116.849 17.2159C117.046 17.5265 117.315 17.7955 117.656 18.0227C117.997 18.2424 118.391 18.4356 118.838 18.6023C119.285 18.7614 119.762 18.8977 120.27 19.0114L122.361 19.5114C123.376 19.7386 124.308 20.0417 125.156 20.4205C126.005 20.7992 126.74 21.2652 127.361 21.8182C127.982 22.3712 128.463 23.0227 128.804 23.7727C129.152 24.5227 129.33 25.3826 129.338 26.3523C129.33 27.7765 128.967 29.0114 128.247 30.0568C127.535 31.0947 126.505 31.9015 125.156 32.4773C123.815 33.0455 122.198 33.3295 120.304 33.3295C118.425 33.3295 116.789 33.0417 115.395 32.4659C114.009 31.8902 112.925 31.0379 112.145 29.9091C111.372 28.7727 110.967 27.3674 110.929 25.6932H115.69C115.743 26.4735 115.967 27.125 116.361 27.6477C116.762 28.1629 117.296 28.553 117.963 28.8182C118.637 29.0758 119.399 29.2045 120.247 29.2045C121.08 29.2045 121.804 29.0833 122.418 28.8409C123.039 28.5985 123.52 28.2614 123.861 27.8295C124.202 27.3977 124.372 26.9015 124.372 26.3409C124.372 25.8182 124.217 25.3788 123.906 25.0227C123.603 24.6667 123.156 24.3636 122.565 24.1136C121.982 23.8636 121.266 23.6364 120.418 23.4318L117.884 22.7955C115.921 22.3182 114.372 21.572 113.236 20.5568C112.099 19.5417 111.535 18.1742 111.543 16.4545C111.535 15.0455 111.91 13.8144 112.668 12.7614C113.433 11.7083 114.482 10.8864 115.815 10.2955C117.149 9.70454 118.664 9.40909 120.361 9.40909C122.088 9.40909 123.596 9.70454 124.884 10.2955C126.179 10.8864 127.187 11.7083 127.906 12.7614C128.626 13.8144 128.997 15.0341 129.02 16.4205H124.304Z" fill="#B19935"/>
</g>
<g filter="url(#filter1_i_118_128)">
<path d="M21.2727 65H13.0227V41.7273H21.3409C23.6818 41.7273 25.697 42.1932 27.3864 43.125C29.0758 44.0492 30.375 45.3788 31.2841 47.1136C32.2008 48.8485 32.6591 50.9242 32.6591 53.3409C32.6591 55.7652 32.2008 57.8485 31.2841 59.5909C30.375 61.3333 29.0682 62.6705 27.3636 63.6023C25.6667 64.5341 23.6364 65 21.2727 65ZM17.9432 60.7841H21.0682C22.5227 60.7841 23.7462 60.5265 24.7386 60.0114C25.7386 59.4886 26.4886 58.6818 26.9886 57.5909C27.4962 56.4924 27.75 55.0758 27.75 53.3409C27.75 51.6212 27.4962 50.2159 26.9886 49.125C26.4886 48.0341 25.7424 47.2311 24.75 46.7159C23.7576 46.2008 22.5341 45.9432 21.0795 45.9432H17.9432V60.7841ZM36.304 65V41.7273H45.4858C47.2434 41.7273 48.7434 42.0417 49.9858 42.6705C51.2358 43.2917 52.1866 44.1742 52.8381 45.3182C53.4972 46.4545 53.8267 47.7917 53.8267 49.3295C53.8267 50.875 53.4934 52.2045 52.8267 53.3182C52.16 54.4242 51.1941 55.2727 49.929 55.8636C48.6714 56.4545 47.1487 56.75 45.3608 56.75H39.2131V52.7955H44.5653C45.5047 52.7955 46.285 52.6667 46.9062 52.4091C47.5275 52.1515 47.9896 51.7652 48.2926 51.25C48.6032 50.7348 48.7585 50.0947 48.7585 49.3295C48.7585 48.5568 48.6032 47.9053 48.2926 47.375C47.9896 46.8447 47.5237 46.4432 46.8949 46.1705C46.2737 45.8902 45.4896 45.75 44.5426 45.75H41.2244V65H36.304ZM48.8722 54.4091L54.6562 65H49.2244L43.5653 54.4091H48.8722ZM62.2244 41.7273V65H57.304V41.7273H62.2244ZM85.7386 41.7273V65H81.4886L71.3636 50.3523H71.1932V65H66.2727V41.7273H70.5909L80.6364 56.3636H80.8409V41.7273H85.7386ZM89.804 65V41.7273H94.7244V51.9886H95.0312L103.406 41.7273H109.304L100.668 52.1477L109.406 65H103.52L97.1449 55.4318L94.7244 58.3864V65H89.804ZM124.304 48.4205C124.213 47.5038 123.823 46.7917 123.134 46.2841C122.444 45.7765 121.509 45.5227 120.327 45.5227C119.524 45.5227 118.846 45.6364 118.293 45.8636C117.74 46.0833 117.315 46.3902 117.02 46.7841C116.732 47.178 116.588 47.625 116.588 48.125C116.573 48.5417 116.66 48.9053 116.849 49.2159C117.046 49.5265 117.315 49.7955 117.656 50.0227C117.997 50.2424 118.391 50.4356 118.838 50.6023C119.285 50.7614 119.762 50.8977 120.27 51.0114L122.361 51.5114C123.376 51.7386 124.308 52.0417 125.156 52.4205C126.005 52.7992 126.74 53.2652 127.361 53.8182C127.982 54.3712 128.463 55.0227 128.804 55.7727C129.152 56.5227 129.33 57.3826 129.338 58.3523C129.33 59.7765 128.967 61.0114 128.247 62.0568C127.535 63.0947 126.505 63.9015 125.156 64.4773C123.815 65.0455 122.198 65.3295 120.304 65.3295C118.425 65.3295 116.789 65.0417 115.395 64.4659C114.009 63.8902 112.925 63.0379 112.145 61.9091C111.372 60.7727 110.967 59.3674 110.929 57.6932H115.69C115.743 58.4735 115.967 59.125 116.361 59.6477C116.762 60.1629 117.296 60.553 117.963 60.8182C118.637 61.0758 119.399 61.2045 120.247 61.2045C121.08 61.2045 121.804 61.0833 122.418 60.8409C123.039 60.5985 123.52 60.2614 123.861 59.8295C124.202 59.3977 124.372 58.9015 124.372 58.3409C124.372 57.8182 124.217 57.3788 123.906 57.0227C123.603 56.6667 123.156 56.3636 122.565 56.1136C121.982 55.8636 121.266 55.6364 120.418 55.4318L117.884 54.7955C115.921 54.3182 114.372 53.572 113.236 52.5568C112.099 51.5417 111.535 50.1742 111.543 48.4545C111.535 47.0455 111.91 45.8144 112.668 44.7614C113.433 43.7083 114.482 42.8864 115.815 42.2955C117.149 41.7045 118.664 41.4091 120.361 41.4091C122.088 41.4091 123.596 41.7045 124.884 42.2955C126.179 42.8864 127.187 43.7083 127.906 44.7614C128.626 45.8144 128.997 47.0341 129.02 48.4205H124.304Z" fill="#B19935"/>
</g>
<defs>
<filter id="filter0_i_118_128" x="13.0227" y="9.40918" width="116.315" height="27.9204" filterUnits="userSpaceOnUse" color-interpolation-filters="sRGB">
<feFlood flood-opacity="0" result="BackgroundImageFix"/>
<feBlend mode="normal" in="SourceGraphic" in2="BackgroundImageFix" result="shape"/>
<feColorMatrix in="SourceAlpha" type="matrix" values="0 0 0 0 0 0 0 0 0 0 0 0 0 0 0 0 0 0 127 0" result="hardAlpha"/>
<feOffset dy="4"/>
<feGaussianBlur stdDeviation="2"/>
<feComposite in2="hardAlpha" operator="arithmetic" k2="-1" k3="1"/>
<feColorMatrix type="matrix" values="0 0 0 0 0 0 0 0 0 0 0 0 0 0 0 0 0 0 0.25 0"/>
<feBlend mode="normal" in2="shape" result="effect1_innerShadow_118_128"/>
</filter>
<filter id="filter1_i_118_128" x="13.0227" y="41.4092" width="116.315" height="27.9204" filterUnits="userSpaceOnUse" color-interpolation-filters="sRGB">
<feFlood flood-opacity="0" result="BackgroundImageFix"/>
<feBlend mode="normal" in="SourceGraphic" in2="BackgroundImageFix" result="shape"/>
<feColorMatrix in="SourceAlpha" type="matrix" values="0 0 0 0 0 0 0 0 0 0 0 0 0 0 0 0 0 0 127 0" result="hardAlpha"/>
<feOffset dy="4"/>
<feGaussianBlur stdDeviation="2"/>
<feComposite in2="hardAlpha" operator="arithmetic" k2="-1" k3="1"/>
<feColorMatrix type="matrix" values="0 0 0 0 0 0 0 0 0 0 0 0 0 0 0 0 0 0 0.25 0"/>
<feBlend mode="normal" in2="shape" result="effect1_innerShadow_118_128"/>
</filter>
</defs>
</svg>
