<svg width="140" height="101" viewBox="0 0 140 101" fill="none" xmlns="http://www.w3.org/2000/svg">
<rect width="140" height="101" rx="10" fill="#C0C0C0"/>
<g filter="url(#filter0_i_117_131)">
<path d="M22.8409 42H12.5284V12.9091H22.9261C25.8523 12.9091 28.3712 13.4915 30.483 14.6562C32.5947 15.8116 34.2188 17.4735 35.3551 19.642C36.5009 21.8106 37.0739 24.4053 37.0739 27.4261C37.0739 30.4564 36.5009 33.0606 35.3551 35.2386C34.2188 37.4167 32.5852 39.0881 30.4545 40.2528C28.3333 41.4176 25.7955 42 22.8409 42ZM18.679 36.7301H22.5852C24.4034 36.7301 25.9328 36.4081 27.1733 35.7642C28.4233 35.1108 29.3608 34.1023 29.9858 32.7386C30.6203 31.3655 30.9375 29.5947 30.9375 27.4261C30.9375 25.2765 30.6203 23.5199 29.9858 22.1562C29.3608 20.7926 28.428 19.7888 27.1875 19.1449C25.947 18.5009 24.4176 18.179 22.5994 18.179H18.679V36.7301ZM45.0036 42H38.4126L48.4553 12.9091H56.3814L66.4098 42H59.8189L52.532 19.5568H52.3047L45.0036 42ZM44.5916 30.5653H60.1598V35.3665H44.5916V30.5653ZM76.0618 12.9091V42H69.9112V12.9091H76.0618ZM81.1222 42V12.9091H92.5994C94.7964 12.9091 96.6714 13.3021 98.2244 14.0881C99.7869 14.8646 100.975 15.9678 101.79 17.3977C102.614 18.8182 103.026 20.4896 103.026 22.4119C103.026 24.3437 102.609 26.0057 101.776 27.3977C100.942 28.7803 99.7348 29.8409 98.1534 30.5795C96.5814 31.3182 94.678 31.6875 92.4432 31.6875H84.7585V26.7443H91.4489C92.6231 26.7443 93.5985 26.5833 94.375 26.2614C95.1515 25.9394 95.7292 25.4564 96.108 24.8125C96.4962 24.1686 96.6903 23.3684 96.6903 22.4119C96.6903 21.446 96.4962 20.6316 96.108 19.9688C95.7292 19.3059 95.1468 18.804 94.3608 18.4631C93.5843 18.1127 92.6042 17.9375 91.4205 17.9375H87.2727V42H81.1222ZM96.8324 28.7614L104.062 42H97.2727L90.1989 28.7614H96.8324ZM104.457 12.9091H111.346L117.979 25.4375H118.263L124.897 12.9091H131.786L121.175 31.7159V42H115.067V31.7159L104.457 12.9091Z" fill="#8E8E8E"/>
<path d="M22.8409 42H12.5284V12.9091H22.9261C25.8523 12.9091 28.3712 13.4915 30.483 14.6562C32.5947 15.8116 34.2188 17.4735 35.3551 19.642C36.5009 21.8106 37.0739 24.4053 37.0739 27.4261C37.0739 30.4564 36.5009 33.0606 35.3551 35.2386C34.2188 37.4167 32.5852 39.0881 30.4545 40.2528C28.3333 41.4176 25.7955 42 22.8409 42ZM18.679 36.7301H22.5852C24.4034 36.7301 25.9328 36.4081 27.1733 35.7642C28.4233 35.1108 29.3608 34.1023 29.9858 32.7386C30.6203 31.3655 30.9375 29.5947 30.9375 27.4261C30.9375 25.2765 30.6203 23.5199 29.9858 22.1562C29.3608 20.7926 28.428 19.7888 27.1875 19.1449C25.947 18.5009 24.4176 18.179 22.5994 18.179H18.679V36.7301ZM45.0036 42H38.4126L48.4553 12.9091H56.3814L66.4098 42H59.8189L52.532 19.5568H52.3047L45.0036 42ZM44.5916 30.5653H60.1598V35.3665H44.5916V30.5653ZM76.0618 12.9091V42H69.9112V12.9091H76.0618ZM81.1222 42V12.9091H92.5994C94.7964 12.9091 96.6714 13.3021 98.2244 14.0881C99.7869 14.8646 100.975 15.9678 101.79 17.3977C102.614 18.8182 103.026 20.4896 103.026 22.4119C103.026 24.3437 102.609 26.0057 101.776 27.3977C100.942 28.7803 99.7348 29.8409 98.1534 30.5795C96.5814 31.3182 94.678 31.6875 92.4432 31.6875H84.7585V26.7443H91.4489C92.6231 26.7443 93.5985 26.5833 94.375 26.2614C95.1515 25.9394 95.7292 25.4564 96.108 24.8125C96.4962 24.1686 96.6903 23.3684 96.6903 22.4119C96.6903 21.446 96.4962 20.6316 96.108 19.9688C95.7292 19.3059 95.1468 18.804 94.3608 18.4631C93.5843 18.1127 92.6042 17.9375 91.4205 17.9375H87.2727V42H81.1222ZM96.8324 28.7614L104.062 42H97.2727L90.1989 28.7614H96.8324ZM104.457 12.9091H111.346L117.979 25.4375H118.263L124.897 12.9091H131.786L121.175 31.7159V42H115.067V31.7159L104.457 12.9091Z" fill="#8E8E8E"/>
</g>
<g filter="url(#filter1_i_117_131)">
<path d="M22.8409 89H12.5284V59.9091H22.9261C25.8523 59.9091 28.3712 60.4915 30.483 61.6562C32.5947 62.8116 34.2188 64.4735 35.3551 66.642C36.5009 68.8106 37.0739 71.4053 37.0739 74.4261C37.0739 77.4564 36.5009 80.0606 35.3551 82.2386C34.2188 84.4167 32.5852 86.0881 30.4545 87.2528C28.3333 88.4176 25.7955 89 22.8409 89ZM18.679 83.7301H22.5852C24.4034 83.7301 25.9328 83.4081 27.1733 82.7642C28.4233 82.1108 29.3608 81.1023 29.9858 79.7386C30.6203 78.3655 30.9375 76.5947 30.9375 74.4261C30.9375 72.2765 30.6203 70.5199 29.9858 69.1562C29.3608 67.7926 28.428 66.7888 27.1875 66.1449C25.947 65.5009 24.4176 65.179 22.5994 65.179H18.679V83.7301ZM45.0036 89H38.4126L48.4553 59.9091H56.3814L66.4098 89H59.8189L52.532 66.5568H52.3047L45.0036 89ZM44.5916 77.5653H60.1598V82.3665H44.5916V77.5653ZM76.0618 59.9091V89H69.9112V59.9091H76.0618ZM81.1222 89V59.9091H92.5994C94.7964 59.9091 96.6714 60.3021 98.2244 61.0881C99.7869 61.8646 100.975 62.9678 101.79 64.3977C102.614 65.8182 103.026 67.4896 103.026 69.4119C103.026 71.3437 102.609 73.0057 101.776 74.3977C100.942 75.7803 99.7348 76.8409 98.1534 77.5795C96.5814 78.3182 94.678 78.6875 92.4432 78.6875H84.7585V73.7443H91.4489C92.6231 73.7443 93.5985 73.5833 94.375 73.2614C95.1515 72.9394 95.7292 72.4564 96.108 71.8125C96.4962 71.1686 96.6903 70.3684 96.6903 69.4119C96.6903 68.446 96.4962 67.6316 96.108 66.9688C95.7292 66.3059 95.1468 65.804 94.3608 65.4631C93.5843 65.1127 92.6042 64.9375 91.4205 64.9375H87.2727V89H81.1222ZM96.8324 75.7614L104.062 89H97.2727L90.1989 75.7614H96.8324ZM104.457 59.9091H111.346L117.979 72.4375H118.263L124.897 59.9091H131.786L121.175 78.7159V89H115.067V78.7159L104.457 59.9091Z" fill="#8E8E8E"/>
<path d="M22.8409 89H12.5284V59.9091H22.9261C25.8523 59.9091 28.3712 60.4915 30.483 61.6562C32.5947 62.8116 34.2188 64.4735 35.3551 66.642C36.5009 68.8106 37.0739 71.4053 37.0739 74.4261C37.0739 77.4564 36.5009 80.0606 35.3551 82.2386C34.2188 84.4167 32.5852 86.0881 30.4545 87.2528C28.3333 88.4176 25.7955 89 22.8409 89ZM18.679 83.7301H22.5852C24.4034 83.7301 25.9328 83.4081 27.1733 82.7642C28.4233 82.1108 29.3608 81.1023 29.9858 79.7386C30.6203 78.3655 30.9375 76.5947 30.9375 74.4261C30.9375 72.2765 30.6203 70.5199 29.9858 69.1562C29.3608 67.7926 28.428 66.7888 27.1875 66.1449C25.947 65.5009 24.4176 65.179 22.5994 65.179H18.679V83.7301ZM45.0036 89H38.4126L48.4553 59.9091H56.3814L66.4098 89H59.8189L52.532 66.5568H52.3047L45.0036 89ZM44.5916 77.5653H60.1598V82.3665H44.5916V77.5653ZM76.0618 59.9091V89H69.9112V59.9091H76.0618ZM81.1222 89V59.9091H92.5994C94.7964 59.9091 96.6714 60.3021 98.2244 61.0881C99.7869 61.8646 100.975 62.9678 101.79 64.3977C102.614 65.8182 103.026 67.4896 103.026 69.4119C103.026 71.3437 102.609 73.0057 101.776 74.3977C100.942 75.7803 99.7348 76.8409 98.1534 77.5795C96.5814 78.3182 94.678 78.6875 92.4432 78.6875H84.7585V73.7443H91.4489C92.6231 73.7443 93.5985 73.5833 94.375 73.2614C95.1515 72.9394 95.7292 72.4564 96.108 71.8125C96.4962 71.1686 96.6903 70.3684 96.6903 69.4119C96.6903 68.446 96.4962 67.6316 96.108 66.9688C95.7292 66.3059 95.1468 65.804 94.3608 65.4631C93.5843 65.1127 92.6042 64.9375 91.4205 64.9375H87.2727V89H81.1222ZM96.8324 75.7614L104.062 89H97.2727L90.1989 75.7614H96.8324ZM104.457 59.9091H111.346L117.979 72.4375H118.263L124.897 59.9091H131.786L121.175 78.7159V89H115.067V78.7159L104.457 59.9091Z" fill="#8E8E8E"/>
</g>
<defs>
<filter id="filter0_i_117_131" x="12.5284" y="12.9092" width="119.258" height="33.0908" filterUnits="userSpaceOnUse" color-interpolation-filters="sRGB">
<feFlood flood-opacity="0" result="BackgroundImageFix"/>
<feBlend mode="normal" in="SourceGraphic" in2="BackgroundImageFix" result="shape"/>
<feColorMatrix in="SourceAlpha" type="matrix" values="0 0 0 0 0 0 0 0 0 0 0 0 0 0 0 0 0 0 127 0" result="hardAlpha"/>
<feOffset dy="4"/>
<feGaussianBlur stdDeviation="2"/>
<feComposite in2="hardAlpha" operator="arithmetic" k2="-1" k3="1"/>
<feColorMatrix type="matrix" values="0 0 0 0 0 0 0 0 0 0 0 0 0 0 0 0 0 0 0.25 0"/>
<feBlend mode="normal" in2="shape" result="effect1_innerShadow_117_131"/>
</filter>
<filter id="filter1_i_117_131" x="12.5284" y="59.9092" width="119.258" height="33.0908" filterUnits="userSpaceOnUse" color-interpolation-filters="sRGB">
<feFlood flood-opacity="0" result="BackgroundImageFix"/>
<feBlend mode="normal" in="SourceGraphic" in2="BackgroundImageFix" result="shape"/>
<feColorMatrix in="SourceAlpha" type="matrix" values="0 0 0 0 0 0 0 0 0 0 0 0 0 0 0 0 0 0 127 0" result="hardAlpha"/>
<feOffset dy="4"/>
<feGaussianBlur stdDeviation="2"/>
<feComposite in2="hardAlpha" operator="arithmetic" k2="-1" k3="1"/>
<feColorMatrix type="matrix" values="0 0 0 0 0 0 0 0 0 0 0 0 0 0 0 0 0 0 0.25 0"/>
<feBlend mode="normal" in2="shape" result="effect1_innerShadow_117_131"/>
</filter>
</defs>
</svg>
