<svg width="140" height="86" viewBox="0 0 140 86" fill="none" xmlns="http://www.w3.org/2000/svg">
<rect width="140" height="86" rx="10" fill="#722811"/>
<g filter="url(#filter0_i_106_137)">
<path d="M9.27557 8.81818H16.1023L23.3125 26.4091H23.6193L30.8295 8.81818H37.6562V35H32.2869V17.9588H32.0696L25.294 34.8722H21.6378L14.8622 17.8949H14.6449V35H9.27557V8.81818ZM42.217 35V8.81818H59.859V13.3821H47.7525V19.6207H58.9514V24.1847H47.7525V30.4361H59.9102V35H42.217ZM68.7727 35H62.8409L71.8793 8.81818H79.0128L88.0384 35H82.1065L75.5483 14.8011H75.3438L68.7727 35ZM68.402 24.7088H82.4134V29.0298H68.402V24.7088ZM86.9933 13.3821V8.81818H108.496V13.3821H100.48V35H95.0089V13.3821H86.9933ZM126.24 16.348C126.138 15.3168 125.699 14.5156 124.924 13.9446C124.148 13.3736 123.096 13.0881 121.766 13.0881C120.863 13.0881 120.1 13.2159 119.478 13.4716C118.855 13.7187 118.378 14.0639 118.046 14.5071C117.722 14.9503 117.56 15.4531 117.56 16.0156C117.543 16.4844 117.641 16.8935 117.854 17.2429C118.076 17.5923 118.378 17.8949 118.762 18.1506C119.145 18.3977 119.588 18.6151 120.091 18.8026C120.594 18.9815 121.131 19.1349 121.702 19.2628L124.054 19.8253C125.196 20.081 126.245 20.4219 127.199 20.848C128.154 21.2741 128.98 21.7983 129.679 22.4205C130.378 23.0426 130.919 23.7756 131.303 24.6193C131.695 25.4631 131.895 26.4304 131.904 27.5213C131.895 29.1236 131.486 30.5128 130.676 31.6889C129.875 32.8565 128.716 33.7642 127.199 34.4119C125.691 35.0511 123.871 35.3707 121.74 35.3707C119.627 35.3707 117.786 35.0469 116.218 34.3991C114.658 33.7514 113.439 32.7926 112.561 31.5227C111.692 30.2443 111.236 28.6634 111.194 26.7798H116.55C116.61 27.6577 116.861 28.3906 117.304 28.9787C117.756 29.5582 118.357 29.9972 119.107 30.2955C119.865 30.5852 120.722 30.7301 121.676 30.7301C122.614 30.7301 123.428 30.5937 124.118 30.321C124.817 30.0483 125.358 29.669 125.742 29.1832C126.125 28.6974 126.317 28.1392 126.317 27.5085C126.317 26.9205 126.142 26.4261 125.793 26.0256C125.452 25.625 124.949 25.2841 124.284 25.0028C123.628 24.7216 122.823 24.4659 121.868 24.2358L119.017 23.5199C116.81 22.983 115.067 22.1435 113.789 21.0014C112.51 19.8594 111.875 18.321 111.884 16.3864C111.875 14.8011 112.297 13.4162 113.15 12.2315C114.01 11.0469 115.191 10.1222 116.691 9.45739C118.191 8.79261 119.895 8.46023 121.804 8.46023C123.748 8.46023 125.444 8.79261 126.892 9.45739C128.35 10.1222 129.483 11.0469 130.293 12.2315C131.103 13.4162 131.52 14.7884 131.546 16.348H126.24Z" fill="#4F1919"/>
</g>
<g filter="url(#filter1_i_106_137)">
<path d="M9.27557 45.8182H16.1023L23.3125 63.4091H23.6193L30.8295 45.8182H37.6562V72H32.2869V54.9588H32.0696L25.294 71.8722H21.6378L14.8622 54.8949H14.6449V72H9.27557V45.8182ZM42.217 72V45.8182H59.859V50.3821H47.7525V56.6207H58.9514V61.1847H47.7525V67.4361H59.9102V72H42.217ZM68.7727 72H62.8409L71.8793 45.8182H79.0128L88.0384 72H82.1065L75.5483 51.8011H75.3438L68.7727 72ZM68.402 61.7088H82.4134V66.0298H68.402V61.7088ZM86.9933 50.3821V45.8182H108.496V50.3821H100.48V72H95.0089V50.3821H86.9933ZM126.24 53.348C126.138 52.3168 125.699 51.5156 124.924 50.9446C124.148 50.3736 123.096 50.0881 121.766 50.0881C120.863 50.0881 120.1 50.2159 119.478 50.4716C118.855 50.7188 118.378 51.0639 118.046 51.5071C117.722 51.9503 117.56 52.4531 117.56 53.0156C117.543 53.4844 117.641 53.8935 117.854 54.2429C118.076 54.5923 118.378 54.8949 118.762 55.1506C119.145 55.3977 119.588 55.6151 120.091 55.8026C120.594 55.9815 121.131 56.1349 121.702 56.2628L124.054 56.8253C125.196 57.081 126.245 57.4219 127.199 57.848C128.154 58.2741 128.98 58.7983 129.679 59.4205C130.378 60.0426 130.919 60.7756 131.303 61.6193C131.695 62.4631 131.895 63.4304 131.904 64.5213C131.895 66.1236 131.486 67.5128 130.676 68.6889C129.875 69.8565 128.716 70.7642 127.199 71.4119C125.691 72.0511 123.871 72.3707 121.74 72.3707C119.627 72.3707 117.786 72.0469 116.218 71.3991C114.658 70.7514 113.439 69.7926 112.561 68.5227C111.692 67.2443 111.236 65.6634 111.194 63.7798H116.55C116.61 64.6577 116.861 65.3906 117.304 65.9787C117.756 66.5582 118.357 66.9972 119.107 67.2955C119.865 67.5852 120.722 67.7301 121.676 67.7301C122.614 67.7301 123.428 67.5937 124.118 67.321C124.817 67.0483 125.358 66.669 125.742 66.1832C126.125 65.6974 126.317 65.1392 126.317 64.5085C126.317 63.9205 126.142 63.4261 125.793 63.0256C125.452 62.625 124.949 62.2841 124.284 62.0028C123.628 61.7216 122.823 61.4659 121.868 61.2358L119.017 60.5199C116.81 59.983 115.067 59.1435 113.789 58.0014C112.51 56.8594 111.875 55.321 111.884 53.3864C111.875 51.8011 112.297 50.4162 113.15 49.2315C114.01 48.0469 115.191 47.1222 116.691 46.4574C118.191 45.7926 119.895 45.4602 121.804 45.4602C123.748 45.4602 125.444 45.7926 126.892 46.4574C128.35 47.1222 129.483 48.0469 130.293 49.2315C131.103 50.4162 131.52 51.7884 131.546 53.348H126.24Z" fill="#4F1919"/>
</g>
<defs>
<filter id="filter0_i_106_137" x="9.27551" y="8.46021" width="122.628" height="30.9106" filterUnits="userSpaceOnUse" color-interpolation-filters="sRGB">
<feFlood flood-opacity="0" result="BackgroundImageFix"/>
<feBlend mode="normal" in="SourceGraphic" in2="BackgroundImageFix" result="shape"/>
<feColorMatrix in="SourceAlpha" type="matrix" values="0 0 0 0 0 0 0 0 0 0 0 0 0 0 0 0 0 0 127 0" result="hardAlpha"/>
<feOffset dy="4"/>
<feGaussianBlur stdDeviation="2"/>
<feComposite in2="hardAlpha" operator="arithmetic" k2="-1" k3="1"/>
<feColorMatrix type="matrix" values="0 0 0 0 0 0 0 0 0 0 0 0 0 0 0 0 0 0 0.25 0"/>
<feBlend mode="normal" in2="shape" result="effect1_innerShadow_106_137"/>
</filter>
<filter id="filter1_i_106_137" x="9.27551" y="45.4602" width="122.628" height="30.9106" filterUnits="userSpaceOnUse" color-interpolation-filters="sRGB">
<feFlood flood-opacity="0" result="BackgroundImageFix"/>
<feBlend mode="normal" in="SourceGraphic" in2="BackgroundImageFix" result="shape"/>
<feColorMatrix in="SourceAlpha" type="matrix" values="0 0 0 0 0 0 0 0 0 0 0 0 0 0 0 0 0 0 127 0" result="hardAlpha"/>
<feOffset dy="4"/>
<feGaussianBlur stdDeviation="2"/>
<feComposite in2="hardAlpha" operator="arithmetic" k2="-1" k3="1"/>
<feColorMatrix type="matrix" values="0 0 0 0 0 0 0 0 0 0 0 0 0 0 0 0 0 0 0.25 0"/>
<feBlend mode="normal" in2="shape" result="effect1_innerShadow_106_137"/>
</filter>
</defs>
</svg>
