<svg width="67" height="66" viewBox="0 0 67 66" fill="none" xmlns="http://www.w3.org/2000/svg">
<rect width="66" height="66" rx="10" fill="#535651"/>
<g filter="url(#filter0_i_117_128)">
<path d="M18.359 12.011C18.2823 11.2376 17.9531 10.6367 17.3714 10.2085C16.7898 9.78018 16.0004 9.56605 15.0032 9.56605C14.3256 9.56605 13.7536 9.66193 13.2869 9.85369C12.8203 10.0391 12.4624 10.2979 12.2131 10.6303C11.9702 10.9627 11.8487 11.3398 11.8487 11.7617C11.8359 12.1133 11.9094 12.4201 12.0692 12.6822C12.2354 12.9442 12.4624 13.1712 12.75 13.3629C13.0376 13.5483 13.37 13.7113 13.7472 13.8519C14.1243 13.9862 14.527 14.1012 14.9553 14.1971L16.7195 14.619C17.576 14.8107 18.3622 15.0664 19.0781 15.386C19.794 15.7056 20.4141 16.0987 20.9382 16.5653C21.4624 17.032 21.8683 17.5817 22.1559 18.2145C22.4499 18.8473 22.6001 19.5728 22.6065 20.391C22.6001 21.5927 22.2933 22.6346 21.6861 23.5167C21.0852 24.3924 20.2159 25.0732 19.0781 25.5589C17.9467 26.0384 16.582 26.2781 14.984 26.2781C13.3988 26.2781 12.0181 26.0352 10.842 25.5494C9.67223 25.0636 8.75817 24.3445 8.09979 23.392C7.4478 22.4332 7.10582 21.2475 7.07386 19.8349H11.0913C11.136 20.4933 11.3246 21.043 11.657 21.484C11.9957 21.9187 12.4464 22.2479 13.0089 22.4716C13.5778 22.6889 14.2202 22.7976 14.9361 22.7976C15.6392 22.7976 16.2496 22.6953 16.7674 22.4908C17.2915 22.2862 17.6974 22.0018 17.9851 21.6374C18.2727 21.2731 18.4165 20.8544 18.4165 20.3814C18.4165 19.9403 18.2855 19.5696 18.0234 19.2692C17.7678 18.9687 17.3906 18.7131 16.892 18.5021C16.3999 18.2912 15.7958 18.0994 15.0799 17.9268L12.9418 17.3899C11.2862 16.9872 9.97905 16.3576 9.02024 15.5011C8.06143 14.6445 7.58523 13.4908 7.59162 12.0398C7.58523 10.8509 7.90163 9.81214 8.54084 8.92365C9.18643 8.03516 10.0717 7.34162 11.1967 6.84304C12.3217 6.34446 13.6001 6.09517 15.032 6.09517C16.4893 6.09517 17.7614 6.34446 18.848 6.84304C19.9411 7.34162 20.7912 8.03516 21.3984 8.92365C22.0057 9.81214 22.3189 10.8413 22.3381 12.011H18.359ZM25.3991 26V6.36364H33.1462C34.6356 6.36364 35.9044 6.64808 36.9527 7.21697C38.001 7.77947 38.8 8.5625 39.3497 9.56605C39.9058 10.5632 40.1839 11.7138 40.1839 13.0178C40.1839 14.3217 39.9026 15.4723 39.3401 16.4695C38.7776 17.4666 37.9626 18.2433 36.8952 18.7994C35.8341 19.3555 34.5493 19.6335 33.0407 19.6335H28.1029V16.3065H32.3696C33.1686 16.3065 33.827 16.169 34.3447 15.8942C34.8689 15.6129 35.2588 15.2262 35.5145 14.734C35.7765 14.2354 35.9076 13.6634 35.9076 13.0178C35.9076 12.3658 35.7765 11.7969 35.5145 11.3111C35.2588 10.8189 34.8689 10.4386 34.3447 10.1701C33.8206 9.89524 33.1558 9.75781 32.3504 9.75781H29.5507V26H25.3991ZM47.0321 6.36364V26H42.8805V6.36364H47.0321ZM25.0323 46.2383H20.8327C20.756 45.695 20.5994 45.2124 20.3629 44.7905C20.1264 44.3622 19.8228 43.9979 19.4521 43.6974C19.0813 43.397 18.6531 43.1669 18.1673 43.0071C17.6879 42.8473 17.1669 42.7674 16.6044 42.7674C15.5881 42.7674 14.7028 43.0199 13.9485 43.5249C13.1942 44.0234 12.6094 44.7521 12.1939 45.7109C11.7784 46.6634 11.5707 47.8203 11.5707 49.1818C11.5707 50.5817 11.7784 51.7578 12.1939 52.7102C12.6158 53.6626 13.2038 54.3817 13.9581 54.8675C14.7124 55.3533 15.5849 55.5962 16.5756 55.5962C17.1317 55.5962 17.6463 55.5227 18.1193 55.3757C18.5987 55.2287 19.0238 55.0146 19.3945 54.7333C19.7653 54.4457 20.0721 54.0973 20.315 53.6882C20.5643 53.2791 20.7369 52.8125 20.8327 52.2884L25.0323 52.3075C24.9237 53.2088 24.652 54.0781 24.2173 54.9155C23.7891 55.7464 23.2106 56.4911 22.4819 57.1495C21.7596 57.8015 20.8967 58.3192 19.8931 58.7028C18.896 59.0799 17.7678 59.2685 16.5085 59.2685C14.7571 59.2685 13.1911 58.8722 11.8104 58.0795C10.4361 57.2869 9.34943 56.1396 8.55043 54.6374C7.75781 53.1353 7.36151 51.3168 7.36151 49.1818C7.36151 47.0405 7.7642 45.2188 8.5696 43.7166C9.375 42.2145 10.468 41.0703 11.8487 40.2841C13.2294 39.4915 14.7827 39.0952 16.5085 39.0952C17.6463 39.0952 18.701 39.255 19.6726 39.5746C20.6506 39.8942 21.5167 40.3608 22.271 40.9744C23.0252 41.5817 23.6388 42.3263 24.1119 43.2085C24.5913 44.0906 24.8981 45.1005 25.0323 46.2383ZM28.0094 59V39.3636H41.2409V42.7866H32.161V47.4656H40.5602V50.8885H32.161V55.5771H41.2793V59H28.0094ZM55.194 45.011C55.1173 44.2376 54.7881 43.6367 54.2064 43.2085C53.6247 42.7802 52.8353 42.5661 51.8382 42.5661C51.1606 42.5661 50.5885 42.6619 50.1219 42.8537C49.6553 43.0391 49.2973 43.2979 49.048 43.6303C48.8051 43.9627 48.6837 44.3398 48.6837 44.7617C48.6709 45.1133 48.7444 45.4201 48.9042 45.6822C49.0704 45.9442 49.2973 46.1712 49.585 46.3629C49.8726 46.5483 50.205 46.7113 50.5821 46.8519C50.9593 46.9862 51.3619 47.1012 51.7902 47.1971L53.5544 47.619C54.411 47.8107 55.1972 48.0664 55.9131 48.386C56.629 48.7056 57.249 49.0987 57.7732 49.5653C58.2973 50.032 58.7032 50.5817 58.9909 51.2145C59.2849 51.8473 59.4351 52.5728 59.4415 53.391C59.4351 54.5927 59.1283 55.6346 58.521 56.5167C57.9202 57.3924 57.0509 58.0732 55.9131 58.5589C54.7817 59.0384 53.417 59.2781 51.819 59.2781C50.2338 59.2781 48.8531 59.0352 47.6769 58.5494C46.5072 58.0636 45.5931 57.3445 44.9347 56.392C44.2828 55.4332 43.9408 54.2475 43.9088 52.8349H47.9262C47.971 53.4933 48.1595 54.043 48.4919 54.484C48.8307 54.9187 49.2813 55.2479 49.8438 55.4716C50.4127 55.6889 51.0551 55.7976 51.771 55.7976C52.4742 55.7976 53.0846 55.6953 53.6024 55.4908C54.1265 55.2862 54.5324 55.0018 54.82 54.6374C55.1077 54.2731 55.2515 53.8544 55.2515 53.3814C55.2515 52.9403 55.1205 52.5696 54.8584 52.2692C54.6027 51.9687 54.2256 51.7131 53.727 51.5021C53.2348 51.2912 52.6308 51.0994 51.9149 50.9268L49.7767 50.3899C48.1212 49.9872 46.814 49.3576 45.8552 48.5011C44.8964 47.6445 44.4202 46.4908 44.4266 45.0398C44.4202 43.8509 44.7366 42.8121 45.3758 41.9237C46.0214 41.0352 46.9067 40.3416 48.0317 39.843C49.1567 39.3445 50.4351 39.0952 51.8669 39.0952C53.3243 39.0952 54.5963 39.3445 55.683 39.843C56.776 40.3416 57.6262 41.0352 58.2334 41.9237C58.8406 42.8121 59.1539 43.8413 59.173 45.011H55.194Z" fill="#463A3A"/>
</g>
<defs>
<filter id="filter0_i_117_128" x="7.07385" y="6.09521" width="52.3677" height="57.1829" filterUnits="userSpaceOnUse" color-interpolation-filters="sRGB">
<feFlood flood-opacity="0" result="BackgroundImageFix"/>
<feBlend mode="normal" in="SourceGraphic" in2="BackgroundImageFix" result="shape"/>
<feColorMatrix in="SourceAlpha" type="matrix" values="0 0 0 0 0 0 0 0 0 0 0 0 0 0 0 0 0 0 127 0" result="hardAlpha"/>
<feOffset dy="4"/>
<feGaussianBlur stdDeviation="2"/>
<feComposite in2="hardAlpha" operator="arithmetic" k2="-1" k3="1"/>
<feColorMatrix type="matrix" values="0 0 0 0 0 0 0 0 0 0 0 0 0 0 0 0 0 0 0.25 0"/>
<feBlend mode="normal" in2="shape" result="effect1_innerShadow_117_128"/>
</filter>
</defs>
</svg>
