<svg width="66" height="66" viewBox="0 0 66 66" fill="none" xmlns="http://www.w3.org/2000/svg">
<rect width="66" height="66" rx="10" fill="#932D2D"/>
<g filter="url(#filter0_i_117_129)">
<path d="M21.0323 14.2383H16.8327C16.756 13.695 16.5994 13.2124 16.3629 12.7905C16.1264 12.3622 15.8228 11.9979 15.4521 11.6974C15.0813 11.397 14.6531 11.1669 14.1673 11.0071C13.6879 10.8473 13.1669 10.7674 12.6044 10.7674C11.5881 10.7674 10.7028 11.0199 9.94851 11.5249C9.19425 12.0234 8.60938 12.7521 8.19389 13.7109C7.77841 14.6634 7.57067 15.8203 7.57067 17.1818C7.57067 18.5817 7.77841 19.7578 8.19389 20.7102C8.61577 21.6626 9.20384 22.3817 9.9581 22.8675C10.7124 23.3533 11.5849 23.5962 12.5756 23.5962C13.1317 23.5962 13.6463 23.5227 14.1193 23.3757C14.5987 23.2287 15.0238 23.0146 15.3945 22.7333C15.7653 22.4457 16.0721 22.0973 16.315 21.6882C16.5643 21.2791 16.7369 20.8125 16.8327 20.2884L21.0323 20.3075C20.9237 21.2088 20.652 22.0781 20.2173 22.9155C19.7891 23.7464 19.2106 24.4911 18.4819 25.1495C17.7596 25.8015 16.8967 26.3192 15.8931 26.7028C14.896 27.0799 13.7678 27.2685 12.5085 27.2685C10.7571 27.2685 9.19105 26.8722 7.81037 26.0795C6.43608 25.2869 5.34943 24.1396 4.55043 22.6374C3.75781 21.1353 3.36151 19.3168 3.36151 17.1818C3.36151 15.0405 3.7642 13.2188 4.5696 11.7166C5.375 10.2145 6.46804 9.07031 7.84872 8.28409C9.2294 7.49148 10.7827 7.09517 12.5085 7.09517C13.6463 7.09517 14.701 7.25497 15.6726 7.57457C16.6506 7.89418 17.5167 8.36079 18.271 8.97443C19.0252 9.58168 19.6388 10.3263 20.1119 11.2085C20.5913 12.0906 20.8981 13.1005 21.0323 14.2383ZM27.0249 27H22.576L29.3548 7.36364H34.7049L41.4741 27H37.0252L32.1065 11.8509H31.9531L27.0249 27ZM26.7468 19.2816H37.2553V22.5224H26.7468V19.2816ZM60.2619 7.36364V27H56.676L48.133 14.641H47.9892V27H43.8375V7.36364H47.481L55.9569 19.7131H56.1294V7.36364H60.2619ZM20.131 40.3636V60H16.5451L8.00213 47.641H7.85831V60H3.70668V40.3636H7.35014L15.826 52.7131H15.9986V40.3636H20.131ZM23.5612 60V40.3636H36.7927V43.7866H27.7128V48.4656H36.112V51.8885H27.7128V56.5771H36.8311V60H23.5612ZM47.0543 60H40.0934V40.3636H47.1119C49.087 40.3636 50.7873 40.7567 52.2127 41.543C53.6381 42.3228 54.7344 43.4446 55.5014 44.9084C56.2749 46.3722 56.6616 48.1236 56.6616 50.1626C56.6616 52.2081 56.2749 53.9659 55.5014 55.4361C54.7344 56.9062 53.6317 58.0344 52.1935 58.8207C50.7617 59.6069 49.0487 60 47.0543 60ZM44.245 56.4428H46.8817C48.109 56.4428 49.1413 56.2255 49.9787 55.7908C50.8224 55.3498 51.4553 54.669 51.8771 53.7486C52.3054 52.8217 52.5195 51.6264 52.5195 50.1626C52.5195 48.7116 52.3054 47.5259 51.8771 46.6055C51.4553 45.685 50.8256 45.0075 49.9883 44.5728C49.1509 44.1381 48.1186 43.9208 46.8913 43.9208H44.245V56.4428Z" fill="#702525"/>
</g>
<defs>
<filter id="filter0_i_117_129" x="3.36145" y="7.09521" width="56.9004" height="56.9048" filterUnits="userSpaceOnUse" color-interpolation-filters="sRGB">
<feFlood flood-opacity="0" result="BackgroundImageFix"/>
<feBlend mode="normal" in="SourceGraphic" in2="BackgroundImageFix" result="shape"/>
<feColorMatrix in="SourceAlpha" type="matrix" values="0 0 0 0 0 0 0 0 0 0 0 0 0 0 0 0 0 0 127 0" result="hardAlpha"/>
<feOffset dy="4"/>
<feGaussianBlur stdDeviation="2"/>
<feComposite in2="hardAlpha" operator="arithmetic" k2="-1" k3="1"/>
<feColorMatrix type="matrix" values="0 0 0 0 0 0 0 0 0 0 0 0 0 0 0 0 0 0 0.25 0"/>
<feBlend mode="normal" in2="shape" result="effect1_innerShadow_117_129"/>
</filter>
</defs>
</svg>
