<svg width="103" height="81" viewBox="0 0 103 81" fill="none" xmlns="http://www.w3.org/2000/svg">
<rect width="103" height="81" rx="10" fill="#729D39"/>
<g filter="url(#filter0_i_238_128)">
<path d="M3.71915 32.5455H8.94358L13.3754 43.3523H13.5799L18.0118 32.5455H23.2362V50H19.1282V39.2784H18.9834L14.7902 49.8892H12.1652L7.97199 39.2188H7.8271V50H3.71915V32.5455ZM41.814 41.2727C41.814 43.1932 41.4447 44.821 40.7061 46.1562C39.9674 47.4915 38.9674 48.5057 37.7061 49.1989C36.4504 49.892 35.0413 50.2386 33.4788 50.2386C31.9106 50.2386 30.4987 49.8892 29.243 49.1903C27.9873 48.4915 26.9902 47.4773 26.2515 46.1477C25.5186 44.8125 25.1521 43.1875 25.1521 41.2727C25.1521 39.3523 25.5186 37.7244 26.2515 36.3892C26.9902 35.054 27.9873 34.0398 29.243 33.3466C30.4987 32.6534 31.9106 32.3068 33.4788 32.3068C35.0413 32.3068 36.4504 32.6534 37.7061 33.3466C38.9674 34.0398 39.9674 35.054 40.7061 36.3892C41.4447 37.7244 41.814 39.3523 41.814 41.2727ZM37.5015 41.2727C37.5015 40.1364 37.3396 39.1761 37.0157 38.392C36.6975 37.608 36.2373 37.0142 35.635 36.6108C35.0384 36.2074 34.3197 36.0057 33.4788 36.0057C32.6436 36.0057 31.9248 36.2074 31.3225 36.6108C30.7203 37.0142 30.2572 37.608 29.9333 38.392C29.6152 39.1761 29.4561 40.1364 29.4561 41.2727C29.4561 42.4091 29.6152 43.3693 29.9333 44.1534C30.2572 44.9375 30.7203 45.5312 31.3225 45.9347C31.9248 46.3381 32.6436 46.5398 33.4788 46.5398C34.3197 46.5398 35.0384 46.3381 35.635 45.9347C36.2373 45.5312 36.6975 44.9375 37.0157 44.1534C37.3396 43.3693 37.5015 42.4091 37.5015 41.2727ZM43.7491 50V32.5455H50.9593C52.2661 32.5455 53.394 32.7812 54.3428 33.2528C55.2974 33.7187 56.0332 34.3892 56.5502 35.2642C57.0673 36.1335 57.3258 37.1648 57.3258 38.358C57.3258 39.5682 57.0616 40.5966 56.5332 41.4432C56.0048 42.2841 55.2548 42.9261 54.2832 43.3693C53.3116 43.8068 52.161 44.0256 50.8315 44.0256H46.2718V40.7017H50.0474C50.6837 40.7017 51.215 40.6193 51.6411 40.4545C52.0729 40.2841 52.3997 40.0284 52.6212 39.6875C52.8428 39.3409 52.9536 38.8977 52.9536 38.358C52.9536 37.8182 52.8428 37.3722 52.6212 37.0199C52.3997 36.6619 52.0729 36.3949 51.6411 36.2188C51.2093 36.0369 50.6781 35.946 50.0474 35.946H47.9678V50H43.7491ZM53.5758 42.0227L57.9224 50H53.3201L49.0587 42.0227H53.5758ZM59.1117 50V32.5455H71.2822V35.9716H63.3305V39.5511H70.66V42.9858H63.3305V46.5739H71.2822V50H59.1117ZM88.337 50.179L86.1381 47.9972L91.2603 42.875H79.7034V39.6705H91.2603L86.1381 34.5568L88.337 32.3665L97.2432 41.2727L88.337 50.179Z" fill="#36622B"/>
</g>
<defs>
<filter id="filter0_i_238_128" x="3.71918" y="32.3069" width="93.524" height="21.9316" filterUnits="userSpaceOnUse" color-interpolation-filters="sRGB">
<feFlood flood-opacity="0" result="BackgroundImageFix"/>
<feBlend mode="normal" in="SourceGraphic" in2="BackgroundImageFix" result="shape"/>
<feColorMatrix in="SourceAlpha" type="matrix" values="0 0 0 0 0 0 0 0 0 0 0 0 0 0 0 0 0 0 127 0" result="hardAlpha"/>
<feOffset dy="4"/>
<feGaussianBlur stdDeviation="2"/>
<feComposite in2="hardAlpha" operator="arithmetic" k2="-1" k3="1"/>
<feColorMatrix type="matrix" values="0 0 0 0 0 0 0 0 0 0 0 0 0 0 0 0 0 0 0.25 0"/>
<feBlend mode="normal" in2="shape" result="effect1_innerShadow_238_128"/>
</filter>
</defs>
</svg>
