<svg width="140" height="97" viewBox="0 0 140 97" fill="none" xmlns="http://www.w3.org/2000/svg">
<rect width="140" height="97" rx="10" fill="#5DB731"/>
<g filter="url(#filter0_i_105_136)">
<path d="M8.89205 76.4545L12.4077 87.5057H12.5426L16.0653 76.4545H19.4744L14.4602 91H10.4972L5.47585 76.4545H8.89205ZM21.2251 91V76.4545H31.0263V78.9901H24.3004V82.456H30.522V84.9915H24.3004V88.4645H31.0547V91H21.2251ZM43.1161 81.1562C43.0167 80.8106 42.877 80.5052 42.6971 80.2401C42.5172 79.9702 42.297 79.7429 42.0366 79.5582C41.7809 79.3688 41.4873 79.2244 41.1559 79.125C40.8292 79.0256 40.467 78.9759 40.0692 78.9759C39.3259 78.9759 38.6725 79.1605 38.109 79.5298C37.5503 79.8991 37.1147 80.4366 36.8022 81.142C36.4897 81.8428 36.3335 82.6998 36.3335 83.7131C36.3335 84.7263 36.4873 85.5881 36.7951 86.2983C37.1029 87.0085 37.5385 87.5507 38.1019 87.9247C38.6654 88.294 39.3306 88.4787 40.0977 88.4787C40.7937 88.4787 41.3879 88.3556 41.8803 88.1094C42.3775 87.8584 42.7563 87.5057 43.0167 87.0511C43.2818 86.5966 43.4144 86.0592 43.4144 85.4389L44.0394 85.5312H40.2894V83.2159H46.3761V85.0483C46.3761 86.3267 46.1062 87.4252 45.5664 88.3438C45.0266 89.2576 44.2833 89.9631 43.3363 90.4602C42.3893 90.9527 41.305 91.1989 40.0835 91.1989C38.7198 91.1989 37.5219 90.8982 36.4897 90.2969C35.4575 89.6908 34.6526 88.8314 34.0749 87.7188C33.502 86.6013 33.2156 85.2756 33.2156 83.7415C33.2156 82.5625 33.386 81.5114 33.7269 80.5881C34.0726 79.66 34.5555 78.8741 35.1758 78.2301C35.796 77.5862 36.5181 77.0961 37.342 76.7599C38.1658 76.4238 39.0584 76.2557 40.0195 76.2557C40.8434 76.2557 41.6104 76.3764 42.3207 76.6179C43.0309 76.8546 43.6606 77.1908 44.2099 77.6264C44.7638 78.062 45.216 78.5805 45.5664 79.1818C45.9168 79.7784 46.1417 80.4366 46.2411 81.1562H43.1161ZM48.6861 91V76.4545H58.4872V78.9901H51.7614V82.456H57.983V84.9915H51.7614V88.4645H58.5156V91H48.6861ZM60.3782 78.9901V76.4545H72.3242V78.9901H67.8711V91H64.8313V78.9901H60.3782ZM75.0213 91H71.7259L76.7472 76.4545H80.7102L85.7244 91H82.429L78.7855 79.7784H78.6719L75.0213 91ZM74.8153 85.2827H82.5994V87.6832H74.8153V85.2827ZM87.4751 91V76.4545H93.299C94.3691 76.4545 95.2616 76.6132 95.9766 76.9304C96.6915 77.2476 97.2289 77.688 97.5888 78.2514C97.9486 78.8101 98.1286 79.4541 98.1286 80.1832C98.1286 80.7514 98.0149 81.2509 97.7876 81.6818C97.5604 82.108 97.2479 82.4583 96.8501 82.733C96.4571 83.0028 96.0073 83.1946 95.5007 83.3082V83.4503C96.0547 83.474 96.5732 83.6302 97.0561 83.919C97.5438 84.2079 97.9392 84.6127 98.2422 85.1335C98.5452 85.6496 98.6967 86.2652 98.6967 86.9801C98.6967 87.7519 98.505 88.4408 98.1214 89.0469C97.7427 89.6482 97.1816 90.1241 96.4382 90.4744C95.6948 90.8248 94.7786 91 93.6896 91H87.4751ZM90.5504 88.4858H93.0575C93.9145 88.4858 94.5395 88.3224 94.9325 87.9957C95.3255 87.6643 95.522 87.224 95.522 86.6747C95.522 86.2723 95.425 85.9171 95.2308 85.6094C95.0367 85.3016 94.7597 85.0601 94.3999 84.8849C94.0447 84.7098 93.621 84.6222 93.1286 84.6222H90.5504V88.4858ZM90.5504 82.5412H92.8303C93.2517 82.5412 93.6257 82.4678 93.9524 82.321C94.2839 82.1695 94.5443 81.9564 94.7337 81.6818C94.9278 81.4072 95.0249 81.0781 95.0249 80.6946C95.0249 80.169 94.8378 79.7453 94.4638 79.4233C94.0945 79.1013 93.5689 78.9403 92.8871 78.9403H90.5504V82.5412ZM100.698 91V76.4545H103.773V88.4645H110.009V91H100.698ZM112.045 91V76.4545H121.847V78.9901H115.121V82.456H121.342V84.9915H115.121V88.4645H121.875V91H112.045ZM132.182 80.6378C132.125 80.0649 131.882 79.6198 131.451 79.3026C131.02 78.9853 130.435 78.8267 129.696 78.8267C129.194 78.8267 128.771 78.8977 128.425 79.0398C128.079 79.1771 127.814 79.3688 127.63 79.6151C127.45 79.8613 127.36 80.1406 127.36 80.4531C127.35 80.7135 127.405 80.9408 127.523 81.1349C127.646 81.3291 127.814 81.4972 128.027 81.6392C128.24 81.7765 128.487 81.8973 128.766 82.0014C129.045 82.1009 129.344 82.1861 129.661 82.2571L130.968 82.5696C131.602 82.7116 132.185 82.901 132.715 83.1378C133.245 83.3745 133.704 83.6657 134.093 84.0114C134.481 84.357 134.782 84.7642 134.995 85.233C135.212 85.7017 135.324 86.2391 135.328 86.8452C135.324 87.7353 135.096 88.5071 134.647 89.1605C134.202 89.8092 133.558 90.3134 132.715 90.6733C131.877 91.0284 130.866 91.206 129.682 91.206C128.508 91.206 127.485 91.026 126.614 90.6662C125.748 90.3063 125.07 89.7737 124.583 89.0682C124.1 88.358 123.846 87.4796 123.823 86.4332H126.799C126.832 86.9209 126.971 87.3281 127.218 87.6548C127.469 87.9768 127.802 88.2206 128.219 88.3864C128.641 88.5473 129.116 88.6278 129.647 88.6278C130.167 88.6278 130.62 88.5521 131.003 88.4006C131.391 88.2491 131.692 88.0384 131.905 87.7685C132.118 87.4986 132.225 87.1884 132.225 86.8381C132.225 86.5114 132.128 86.2367 131.934 86.0142C131.744 85.7917 131.465 85.6023 131.096 85.446C130.731 85.2898 130.283 85.1477 129.753 85.0199L128.169 84.6222C126.943 84.3239 125.975 83.8575 125.265 83.223C124.554 82.5885 124.202 81.7339 124.206 80.6591C124.202 79.7784 124.436 79.009 124.909 78.3509C125.388 77.6927 126.043 77.179 126.877 76.8097C127.71 76.4403 128.657 76.2557 129.718 76.2557C130.797 76.2557 131.739 76.4403 132.544 76.8097C133.354 77.179 133.984 77.6927 134.434 78.3509C134.883 79.009 135.115 79.7713 135.13 80.6378H132.182Z" fill="#239523"/>
</g>
<g filter="url(#filter1_i_105_136)">
<path d="M8.89205 53.4545L12.4077 64.5057H12.5426L16.0653 53.4545H19.4744L14.4602 68H10.4972L5.47585 53.4545H8.89205ZM21.2251 68V53.4545H31.0263V55.9901H24.3004V59.456H30.522V61.9915H24.3004V65.4645H31.0547V68H21.2251ZM43.1161 58.1562C43.0167 57.8106 42.877 57.5052 42.6971 57.2401C42.5172 56.9702 42.297 56.7429 42.0366 56.5582C41.7809 56.3688 41.4873 56.2244 41.1559 56.125C40.8292 56.0256 40.467 55.9759 40.0692 55.9759C39.3259 55.9759 38.6725 56.1605 38.109 56.5298C37.5503 56.8991 37.1147 57.4366 36.8022 58.142C36.4897 58.8428 36.3335 59.6998 36.3335 60.7131C36.3335 61.7263 36.4873 62.5881 36.7951 63.2983C37.1029 64.0085 37.5385 64.5507 38.1019 64.9247C38.6654 65.294 39.3306 65.4787 40.0977 65.4787C40.7937 65.4787 41.3879 65.3556 41.8803 65.1094C42.3775 64.8584 42.7563 64.5057 43.0167 64.0511C43.2818 63.5966 43.4144 63.0592 43.4144 62.4389L44.0394 62.5312H40.2894V60.2159H46.3761V62.0483C46.3761 63.3267 46.1062 64.4252 45.5664 65.3438C45.0266 66.2576 44.2833 66.9631 43.3363 67.4602C42.3893 67.9527 41.305 68.1989 40.0835 68.1989C38.7198 68.1989 37.5219 67.8982 36.4897 67.2969C35.4575 66.6908 34.6526 65.8314 34.0749 64.7188C33.502 63.6013 33.2156 62.2756 33.2156 60.7415C33.2156 59.5625 33.386 58.5114 33.7269 57.5881C34.0726 56.66 34.5555 55.8741 35.1758 55.2301C35.796 54.5862 36.5181 54.0961 37.342 53.7599C38.1658 53.4238 39.0584 53.2557 40.0195 53.2557C40.8434 53.2557 41.6104 53.3764 42.3207 53.6179C43.0309 53.8546 43.6606 54.1908 44.2099 54.6264C44.7638 55.062 45.216 55.5805 45.5664 56.1818C45.9168 56.7784 46.1417 57.4366 46.2411 58.1562H43.1161ZM48.6861 68V53.4545H58.4872V55.9901H51.7614V59.456H57.983V61.9915H51.7614V65.4645H58.5156V68H48.6861ZM60.3782 55.9901V53.4545H72.3242V55.9901H67.8711V68H64.8313V55.9901H60.3782ZM75.0213 68H71.7259L76.7472 53.4545H80.7102L85.7244 68H82.429L78.7855 56.7784H78.6719L75.0213 68ZM74.8153 62.2827H82.5994V64.6832H74.8153V62.2827ZM87.4751 68V53.4545H93.299C94.3691 53.4545 95.2616 53.6132 95.9766 53.9304C96.6915 54.2476 97.2289 54.688 97.5888 55.2514C97.9486 55.8101 98.1286 56.4541 98.1286 57.1832C98.1286 57.7514 98.0149 58.2509 97.7876 58.6818C97.5604 59.108 97.2479 59.4583 96.8501 59.733C96.4571 60.0028 96.0073 60.1946 95.5007 60.3082V60.4503C96.0547 60.474 96.5732 60.6302 97.0561 60.919C97.5438 61.2079 97.9392 61.6127 98.2422 62.1335C98.5452 62.6496 98.6967 63.2652 98.6967 63.9801C98.6967 64.7519 98.505 65.4408 98.1214 66.0469C97.7427 66.6482 97.1816 67.1241 96.4382 67.4744C95.6948 67.8248 94.7786 68 93.6896 68H87.4751ZM90.5504 65.4858H93.0575C93.9145 65.4858 94.5395 65.3224 94.9325 64.9957C95.3255 64.6643 95.522 64.224 95.522 63.6747C95.522 63.2723 95.425 62.9171 95.2308 62.6094C95.0367 62.3016 94.7597 62.0601 94.3999 61.8849C94.0447 61.7098 93.621 61.6222 93.1286 61.6222H90.5504V65.4858ZM90.5504 59.5412H92.8303C93.2517 59.5412 93.6257 59.4678 93.9524 59.321C94.2839 59.1695 94.5443 58.9564 94.7337 58.6818C94.9278 58.4072 95.0249 58.0781 95.0249 57.6946C95.0249 57.169 94.8378 56.7453 94.4638 56.4233C94.0945 56.1013 93.5689 55.9403 92.8871 55.9403H90.5504V59.5412ZM100.698 68V53.4545H103.773V65.4645H110.009V68H100.698ZM112.045 68V53.4545H121.847V55.9901H115.121V59.456H121.342V61.9915H115.121V65.4645H121.875V68H112.045ZM132.182 57.6378C132.125 57.0649 131.882 56.6198 131.451 56.3026C131.02 55.9853 130.435 55.8267 129.696 55.8267C129.194 55.8267 128.771 55.8977 128.425 56.0398C128.079 56.1771 127.814 56.3688 127.63 56.6151C127.45 56.8613 127.36 57.1406 127.36 57.4531C127.35 57.7135 127.405 57.9408 127.523 58.1349C127.646 58.3291 127.814 58.4972 128.027 58.6392C128.24 58.7765 128.487 58.8973 128.766 59.0014C129.045 59.1009 129.344 59.1861 129.661 59.2571L130.968 59.5696C131.602 59.7116 132.185 59.901 132.715 60.1378C133.245 60.3745 133.704 60.6657 134.093 61.0114C134.481 61.357 134.782 61.7642 134.995 62.233C135.212 62.7017 135.324 63.2391 135.328 63.8452C135.324 64.7353 135.096 65.5071 134.647 66.1605C134.202 66.8092 133.558 67.3134 132.715 67.6733C131.877 68.0284 130.866 68.206 129.682 68.206C128.508 68.206 127.485 68.026 126.614 67.6662C125.748 67.3063 125.07 66.7737 124.583 66.0682C124.1 65.358 123.846 64.4796 123.823 63.4332H126.799C126.832 63.9209 126.971 64.3281 127.218 64.6548C127.469 64.9768 127.802 65.2206 128.219 65.3864C128.641 65.5473 129.116 65.6278 129.647 65.6278C130.167 65.6278 130.62 65.5521 131.003 65.4006C131.391 65.2491 131.692 65.0384 131.905 64.7685C132.118 64.4986 132.225 64.1884 132.225 63.8381C132.225 63.5114 132.128 63.2367 131.934 63.0142C131.744 62.7917 131.465 62.6023 131.096 62.446C130.731 62.2898 130.283 62.1477 129.753 62.0199L128.169 61.6222C126.943 61.3239 125.975 60.8575 125.265 60.223C124.554 59.5885 124.202 58.7339 124.206 57.6591C124.202 56.7784 124.436 56.009 124.909 55.3509C125.388 54.6927 126.043 54.179 126.877 53.8097C127.71 53.4403 128.657 53.2557 129.718 53.2557C130.797 53.2557 131.739 53.4403 132.544 53.8097C133.354 54.179 133.984 54.6927 134.434 55.3509C134.883 56.009 135.115 56.7713 135.13 57.6378H132.182Z" fill="#239523"/>
</g>
<g filter="url(#filter2_i_105_136)">
<path d="M8.89205 30.4545L12.4077 41.5057H12.5426L16.0653 30.4545H19.4744L14.4602 45H10.4972L5.47585 30.4545H8.89205ZM21.2251 45V30.4545H31.0263V32.9901H24.3004V36.456H30.522V38.9915H24.3004V42.4645H31.0547V45H21.2251ZM43.1161 35.1562C43.0167 34.8106 42.877 34.5052 42.6971 34.2401C42.5172 33.9702 42.297 33.7429 42.0366 33.5582C41.7809 33.3688 41.4873 33.2244 41.1559 33.125C40.8292 33.0256 40.467 32.9759 40.0692 32.9759C39.3259 32.9759 38.6725 33.1605 38.109 33.5298C37.5503 33.8991 37.1147 34.4366 36.8022 35.142C36.4897 35.8428 36.3335 36.6998 36.3335 37.7131C36.3335 38.7263 36.4873 39.5881 36.7951 40.2983C37.1029 41.0085 37.5385 41.5507 38.1019 41.9247C38.6654 42.294 39.3306 42.4787 40.0977 42.4787C40.7937 42.4787 41.3879 42.3556 41.8803 42.1094C42.3775 41.8584 42.7563 41.5057 43.0167 41.0511C43.2818 40.5966 43.4144 40.0592 43.4144 39.4389L44.0394 39.5312H40.2894V37.2159H46.3761V39.0483C46.3761 40.3267 46.1062 41.4252 45.5664 42.3438C45.0266 43.2576 44.2833 43.9631 43.3363 44.4602C42.3893 44.9527 41.305 45.1989 40.0835 45.1989C38.7198 45.1989 37.5219 44.8982 36.4897 44.2969C35.4575 43.6908 34.6526 42.8314 34.0749 41.7188C33.502 40.6013 33.2156 39.2756 33.2156 37.7415C33.2156 36.5625 33.386 35.5114 33.7269 34.5881C34.0726 33.66 34.5555 32.8741 35.1758 32.2301C35.796 31.5862 36.5181 31.0961 37.342 30.7599C38.1658 30.4238 39.0584 30.2557 40.0195 30.2557C40.8434 30.2557 41.6104 30.3764 42.3207 30.6179C43.0309 30.8546 43.6606 31.1908 44.2099 31.6264C44.7638 32.062 45.216 32.5805 45.5664 33.1818C45.9168 33.7784 46.1417 34.4366 46.2411 35.1562H43.1161ZM48.6861 45V30.4545H58.4872V32.9901H51.7614V36.456H57.983V38.9915H51.7614V42.4645H58.5156V45H48.6861ZM60.3782 32.9901V30.4545H72.3242V32.9901H67.8711V45H64.8313V32.9901H60.3782ZM75.0213 45H71.7259L76.7472 30.4545H80.7102L85.7244 45H82.429L78.7855 33.7784H78.6719L75.0213 45ZM74.8153 39.2827H82.5994V41.6832H74.8153V39.2827ZM87.4751 45V30.4545H93.299C94.3691 30.4545 95.2616 30.6132 95.9766 30.9304C96.6915 31.2476 97.2289 31.688 97.5888 32.2514C97.9486 32.8101 98.1286 33.4541 98.1286 34.1832C98.1286 34.7514 98.0149 35.2509 97.7876 35.6818C97.5604 36.108 97.2479 36.4583 96.8501 36.733C96.4571 37.0028 96.0073 37.1946 95.5007 37.3082V37.4503C96.0547 37.474 96.5732 37.6302 97.0561 37.919C97.5438 38.2079 97.9392 38.6127 98.2422 39.1335C98.5452 39.6496 98.6967 40.2652 98.6967 40.9801C98.6967 41.7519 98.505 42.4408 98.1214 43.0469C97.7427 43.6482 97.1816 44.1241 96.4382 44.4744C95.6948 44.8248 94.7786 45 93.6896 45H87.4751ZM90.5504 42.4858H93.0575C93.9145 42.4858 94.5395 42.3224 94.9325 41.9957C95.3255 41.6643 95.522 41.224 95.522 40.6747C95.522 40.2723 95.425 39.9171 95.2308 39.6094C95.0367 39.3016 94.7597 39.0601 94.3999 38.8849C94.0447 38.7098 93.621 38.6222 93.1286 38.6222H90.5504V42.4858ZM90.5504 36.5412H92.8303C93.2517 36.5412 93.6257 36.4678 93.9524 36.321C94.2839 36.1695 94.5443 35.9564 94.7337 35.6818C94.9278 35.4072 95.0249 35.0781 95.0249 34.6946C95.0249 34.169 94.8378 33.7453 94.4638 33.4233C94.0945 33.1013 93.5689 32.9403 92.8871 32.9403H90.5504V36.5412ZM100.698 45V30.4545H103.773V42.4645H110.009V45H100.698ZM112.045 45V30.4545H121.847V32.9901H115.121V36.456H121.342V38.9915H115.121V42.4645H121.875V45H112.045ZM132.182 34.6378C132.125 34.0649 131.882 33.6198 131.451 33.3026C131.02 32.9853 130.435 32.8267 129.696 32.8267C129.194 32.8267 128.771 32.8977 128.425 33.0398C128.079 33.1771 127.814 33.3688 127.63 33.6151C127.45 33.8613 127.36 34.1406 127.36 34.4531C127.35 34.7135 127.405 34.9408 127.523 35.1349C127.646 35.3291 127.814 35.4972 128.027 35.6392C128.24 35.7765 128.487 35.8973 128.766 36.0014C129.045 36.1009 129.344 36.1861 129.661 36.2571L130.968 36.5696C131.602 36.7116 132.185 36.901 132.715 37.1378C133.245 37.3745 133.704 37.6657 134.093 38.0114C134.481 38.357 134.782 38.7642 134.995 39.233C135.212 39.7017 135.324 40.2391 135.328 40.8452C135.324 41.7353 135.096 42.5071 134.647 43.1605C134.202 43.8092 133.558 44.3134 132.715 44.6733C131.877 45.0284 130.866 45.206 129.682 45.206C128.508 45.206 127.485 45.026 126.614 44.6662C125.748 44.3063 125.07 43.7737 124.583 43.0682C124.1 42.358 123.846 41.4796 123.823 40.4332H126.799C126.832 40.9209 126.971 41.3281 127.218 41.6548C127.469 41.9768 127.802 42.2206 128.219 42.3864C128.641 42.5473 129.116 42.6278 129.647 42.6278C130.167 42.6278 130.62 42.5521 131.003 42.4006C131.391 42.2491 131.692 42.0384 131.905 41.7685C132.118 41.4986 132.225 41.1884 132.225 40.8381C132.225 40.5114 132.128 40.2367 131.934 40.0142C131.744 39.7917 131.465 39.6023 131.096 39.446C130.731 39.2898 130.283 39.1477 129.753 39.0199L128.169 38.6222C126.943 38.3239 125.975 37.8575 125.265 37.223C124.554 36.5885 124.202 35.7339 124.206 34.6591C124.202 33.7784 124.436 33.009 124.909 32.3509C125.388 31.6927 126.043 31.179 126.877 30.8097C127.71 30.4403 128.657 30.2557 129.718 30.2557C130.797 30.2557 131.739 30.4403 132.544 30.8097C133.354 31.179 133.984 31.6927 134.434 32.3509C134.883 33.009 135.115 33.7713 135.13 34.6378H132.182Z" fill="#239523"/>
</g>
<g filter="url(#filter3_i_105_136)">
<path d="M8.89205 9.45455L12.4077 20.5057H12.5426L16.0653 9.45455H19.4744L14.4602 24H10.4972L5.47585 9.45455H8.89205ZM21.2251 24V9.45455H31.0263V11.9901H24.3004V15.456H30.522V17.9915H24.3004V21.4645H31.0547V24H21.2251ZM43.1161 14.1562C43.0167 13.8106 42.877 13.5052 42.6971 13.2401C42.5172 12.9702 42.297 12.7429 42.0366 12.5582C41.7809 12.3688 41.4873 12.2244 41.1559 12.125C40.8292 12.0256 40.467 11.9759 40.0692 11.9759C39.3259 11.9759 38.6725 12.1605 38.109 12.5298C37.5503 12.8991 37.1147 13.4366 36.8022 14.142C36.4897 14.8428 36.3335 15.6998 36.3335 16.7131C36.3335 17.7263 36.4873 18.5881 36.7951 19.2983C37.1029 20.0085 37.5385 20.5507 38.1019 20.9247C38.6654 21.294 39.3306 21.4787 40.0977 21.4787C40.7937 21.4787 41.3879 21.3556 41.8803 21.1094C42.3775 20.8584 42.7563 20.5057 43.0167 20.0511C43.2818 19.5966 43.4144 19.0592 43.4144 18.4389L44.0394 18.5312H40.2894V16.2159H46.3761V18.0483C46.3761 19.3267 46.1062 20.4252 45.5664 21.3438C45.0266 22.2576 44.2833 22.9631 43.3363 23.4602C42.3893 23.9527 41.305 24.1989 40.0835 24.1989C38.7198 24.1989 37.5219 23.8982 36.4897 23.2969C35.4575 22.6908 34.6526 21.8314 34.0749 20.7188C33.502 19.6013 33.2156 18.2756 33.2156 16.7415C33.2156 15.5625 33.386 14.5114 33.7269 13.5881C34.0726 12.66 34.5555 11.8741 35.1758 11.2301C35.796 10.5862 36.5181 10.0961 37.342 9.75994C38.1658 9.42377 39.0584 9.25568 40.0195 9.25568C40.8434 9.25568 41.6104 9.37642 42.3207 9.6179C43.0309 9.85464 43.6606 10.1908 44.2099 10.6264C44.7638 11.062 45.216 11.5805 45.5664 12.1818C45.9168 12.7784 46.1417 13.4366 46.2411 14.1562H43.1161ZM48.6861 24V9.45455H58.4872V11.9901H51.7614V15.456H57.983V17.9915H51.7614V21.4645H58.5156V24H48.6861ZM60.3782 11.9901V9.45455H72.3242V11.9901H67.8711V24H64.8313V11.9901H60.3782ZM75.0213 24H71.7259L76.7472 9.45455H80.7102L85.7244 24H82.429L78.7855 12.7784H78.6719L75.0213 24ZM74.8153 18.2827H82.5994V20.6832H74.8153V18.2827ZM87.4751 24V9.45455H93.299C94.3691 9.45455 95.2616 9.61316 95.9766 9.9304C96.6915 10.2476 97.2289 10.688 97.5888 11.2514C97.9486 11.8101 98.1286 12.4541 98.1286 13.1832C98.1286 13.7514 98.0149 14.2509 97.7876 14.6818C97.5604 15.108 97.2479 15.4583 96.8501 15.733C96.4571 16.0028 96.0073 16.1946 95.5007 16.3082V16.4503C96.0547 16.474 96.5732 16.6302 97.0561 16.919C97.5438 17.2079 97.9392 17.6127 98.2422 18.1335C98.5452 18.6496 98.6967 19.2652 98.6967 19.9801C98.6967 20.7519 98.505 21.4408 98.1214 22.0469C97.7427 22.6482 97.1816 23.1241 96.4382 23.4744C95.6948 23.8248 94.7786 24 93.6896 24H87.4751ZM90.5504 21.4858H93.0575C93.9145 21.4858 94.5395 21.3224 94.9325 20.9957C95.3255 20.6643 95.522 20.224 95.522 19.6747C95.522 19.2723 95.425 18.9171 95.2308 18.6094C95.0367 18.3016 94.7597 18.0601 94.3999 17.8849C94.0447 17.7098 93.621 17.6222 93.1286 17.6222H90.5504V21.4858ZM90.5504 15.5412H92.8303C93.2517 15.5412 93.6257 15.4678 93.9524 15.321C94.2839 15.1695 94.5443 14.9564 94.7337 14.6818C94.9278 14.4072 95.0249 14.0781 95.0249 13.6946C95.0249 13.169 94.8378 12.7453 94.4638 12.4233C94.0945 12.1013 93.5689 11.9403 92.8871 11.9403H90.5504V15.5412ZM100.698 24V9.45455H103.773V21.4645H110.009V24H100.698ZM112.045 24V9.45455H121.847V11.9901H115.121V15.456H121.342V17.9915H115.121V21.4645H121.875V24H112.045ZM132.182 13.6378C132.125 13.0649 131.882 12.6198 131.451 12.3026C131.02 11.9853 130.435 11.8267 129.696 11.8267C129.194 11.8267 128.771 11.8977 128.425 12.0398C128.079 12.1771 127.814 12.3688 127.63 12.6151C127.45 12.8613 127.36 13.1406 127.36 13.4531C127.35 13.7135 127.405 13.9408 127.523 14.1349C127.646 14.3291 127.814 14.4972 128.027 14.6392C128.24 14.7765 128.487 14.8973 128.766 15.0014C129.045 15.1009 129.344 15.1861 129.661 15.2571L130.968 15.5696C131.602 15.7116 132.185 15.901 132.715 16.1378C133.245 16.3745 133.704 16.6657 134.093 17.0114C134.481 17.357 134.782 17.7642 134.995 18.233C135.212 18.7017 135.324 19.2391 135.328 19.8452C135.324 20.7353 135.096 21.5071 134.647 22.1605C134.202 22.8092 133.558 23.3134 132.715 23.6733C131.877 24.0284 130.866 24.206 129.682 24.206C128.508 24.206 127.485 24.026 126.614 23.6662C125.748 23.3063 125.07 22.7737 124.583 22.0682C124.1 21.358 123.846 20.4796 123.823 19.4332H126.799C126.832 19.9209 126.971 20.3281 127.218 20.6548C127.469 20.9768 127.802 21.2206 128.219 21.3864C128.641 21.5473 129.116 21.6278 129.647 21.6278C130.167 21.6278 130.62 21.5521 131.003 21.4006C131.391 21.2491 131.692 21.0384 131.905 20.7685C132.118 20.4986 132.225 20.1884 132.225 19.8381C132.225 19.5114 132.128 19.2367 131.934 19.0142C131.744 18.7917 131.465 18.6023 131.096 18.446C130.731 18.2898 130.283 18.1477 129.753 18.0199L128.169 17.6222C126.943 17.3239 125.975 16.8575 125.265 16.223C124.554 15.5885 124.202 14.7339 124.206 13.6591C124.202 12.7784 124.436 12.009 124.909 11.3509C125.388 10.6927 126.043 10.179 126.877 9.80966C127.71 9.44034 128.657 9.25568 129.718 9.25568C130.797 9.25568 131.739 9.44034 132.544 9.80966C133.354 10.179 133.984 10.6927 134.434 11.3509C134.883 12.009 135.115 12.7713 135.13 13.6378H132.182Z" fill="#239523"/>
</g>
<defs>
<filter id="filter0_i_105_136" x="5.47583" y="76.2556" width="129.853" height="18.9504" filterUnits="userSpaceOnUse" color-interpolation-filters="sRGB">
<feFlood flood-opacity="0" result="BackgroundImageFix"/>
<feBlend mode="normal" in="SourceGraphic" in2="BackgroundImageFix" result="shape"/>
<feColorMatrix in="SourceAlpha" type="matrix" values="0 0 0 0 0 0 0 0 0 0 0 0 0 0 0 0 0 0 127 0" result="hardAlpha"/>
<feOffset dy="4"/>
<feGaussianBlur stdDeviation="2"/>
<feComposite in2="hardAlpha" operator="arithmetic" k2="-1" k3="1"/>
<feColorMatrix type="matrix" values="0 0 0 0 0 0 0 0 0 0 0 0 0 0 0 0 0 0 0.25 0"/>
<feBlend mode="normal" in2="shape" result="effect1_innerShadow_105_136"/>
</filter>
<filter id="filter1_i_105_136" x="5.47583" y="53.2556" width="129.853" height="18.9504" filterUnits="userSpaceOnUse" color-interpolation-filters="sRGB">
<feFlood flood-opacity="0" result="BackgroundImageFix"/>
<feBlend mode="normal" in="SourceGraphic" in2="BackgroundImageFix" result="shape"/>
<feColorMatrix in="SourceAlpha" type="matrix" values="0 0 0 0 0 0 0 0 0 0 0 0 0 0 0 0 0 0 127 0" result="hardAlpha"/>
<feOffset dy="4"/>
<feGaussianBlur stdDeviation="2"/>
<feComposite in2="hardAlpha" operator="arithmetic" k2="-1" k3="1"/>
<feColorMatrix type="matrix" values="0 0 0 0 0 0 0 0 0 0 0 0 0 0 0 0 0 0 0.25 0"/>
<feBlend mode="normal" in2="shape" result="effect1_innerShadow_105_136"/>
</filter>
<filter id="filter2_i_105_136" x="5.47583" y="30.2556" width="129.853" height="18.9504" filterUnits="userSpaceOnUse" color-interpolation-filters="sRGB">
<feFlood flood-opacity="0" result="BackgroundImageFix"/>
<feBlend mode="normal" in="SourceGraphic" in2="BackgroundImageFix" result="shape"/>
<feColorMatrix in="SourceAlpha" type="matrix" values="0 0 0 0 0 0 0 0 0 0 0 0 0 0 0 0 0 0 127 0" result="hardAlpha"/>
<feOffset dy="4"/>
<feGaussianBlur stdDeviation="2"/>
<feComposite in2="hardAlpha" operator="arithmetic" k2="-1" k3="1"/>
<feColorMatrix type="matrix" values="0 0 0 0 0 0 0 0 0 0 0 0 0 0 0 0 0 0 0.25 0"/>
<feBlend mode="normal" in2="shape" result="effect1_innerShadow_105_136"/>
</filter>
<filter id="filter3_i_105_136" x="5.47583" y="9.25562" width="129.853" height="18.9504" filterUnits="userSpaceOnUse" color-interpolation-filters="sRGB">
<feFlood flood-opacity="0" result="BackgroundImageFix"/>
<feBlend mode="normal" in="SourceGraphic" in2="BackgroundImageFix" result="shape"/>
<feColorMatrix in="SourceAlpha" type="matrix" values="0 0 0 0 0 0 0 0 0 0 0 0 0 0 0 0 0 0 127 0" result="hardAlpha"/>
<feOffset dy="4"/>
<feGaussianBlur stdDeviation="2"/>
<feComposite in2="hardAlpha" operator="arithmetic" k2="-1" k3="1"/>
<feColorMatrix type="matrix" values="0 0 0 0 0 0 0 0 0 0 0 0 0 0 0 0 0 0 0.25 0"/>
<feBlend mode="normal" in2="shape" result="effect1_innerShadow_105_136"/>
</filter>
</defs>
</svg>
