<svg width="167" height="68" viewBox="0 0 167 68" fill="none" xmlns="http://www.w3.org/2000/svg">
<rect width="167" height="68" rx="10" fill="#51B17C"/>
<g filter="url(#filter0_i_117_130)">
<path d="M17.9176 32.6562H14.1847C14.1165 32.1733 13.9773 31.7443 13.767 31.3693C13.5568 30.9886 13.2869 30.6648 12.9574 30.3977C12.6278 30.1307 12.2472 29.9261 11.8153 29.7841C11.3892 29.642 10.9261 29.571 10.4261 29.571C9.52273 29.571 8.7358 29.7955 8.06534 30.2443C7.39489 30.6875 6.875 31.3352 6.50568 32.1875C6.13636 33.0341 5.9517 34.0625 5.9517 35.2727C5.9517 36.517 6.13636 37.5625 6.50568 38.4091C6.88068 39.2557 7.40341 39.8949 8.07386 40.3267C8.74432 40.7585 9.51989 40.9744 10.4006 40.9744C10.8949 40.9744 11.3523 40.9091 11.7727 40.7784C12.1989 40.6477 12.5767 40.4574 12.9062 40.2074C13.2358 39.9517 13.5085 39.642 13.7244 39.2784C13.946 38.9148 14.0994 38.5 14.1847 38.0341L17.9176 38.0511C17.821 38.8523 17.5795 39.625 17.1932 40.3693C16.8125 41.108 16.2983 41.7699 15.6506 42.3551C15.0085 42.9347 14.2415 43.3949 13.3494 43.7358C12.4631 44.071 11.4602 44.2386 10.3409 44.2386C8.78409 44.2386 7.39205 43.8864 6.16477 43.1818C4.94318 42.4773 3.97727 41.4574 3.26705 40.1222C2.5625 38.7869 2.21023 37.1705 2.21023 35.2727C2.21023 33.3693 2.56818 31.75 3.28409 30.4148C4 29.0795 4.97159 28.0625 6.19886 27.3636C7.42614 26.6591 8.80682 26.3068 10.3409 26.3068C11.3523 26.3068 12.2898 26.4489 13.1534 26.733C14.0227 27.017 14.7926 27.4318 15.4631 27.9773C16.1335 28.517 16.679 29.179 17.0994 29.9631C17.5256 30.7472 17.7983 31.6449 17.9176 32.6562ZM36.6037 35.2727C36.6037 37.1761 36.2429 38.7955 35.5213 40.1307C34.8054 41.4659 33.8281 42.4858 32.5895 43.1903C31.3565 43.8892 29.9702 44.2386 28.4304 44.2386C26.8793 44.2386 25.4872 43.8864 24.2543 43.1818C23.0213 42.4773 22.0469 41.4574 21.331 40.1222C20.6151 38.7869 20.2571 37.1705 20.2571 35.2727C20.2571 33.3693 20.6151 31.75 21.331 30.4148C22.0469 29.0795 23.0213 28.0625 24.2543 27.3636C25.4872 26.6591 26.8793 26.3068 28.4304 26.3068C29.9702 26.3068 31.3565 26.6591 32.5895 27.3636C33.8281 28.0625 34.8054 29.0795 35.5213 30.4148C36.2429 31.75 36.6037 33.3693 36.6037 35.2727ZM32.8622 35.2727C32.8622 34.0398 32.6776 33 32.3082 32.1534C31.9446 31.3068 31.4304 30.6648 30.7656 30.2273C30.1009 29.7898 29.3224 29.571 28.4304 29.571C27.5384 29.571 26.7599 29.7898 26.0952 30.2273C25.4304 30.6648 24.9134 31.3068 24.544 32.1534C24.1804 33 23.9986 34.0398 23.9986 35.2727C23.9986 36.5057 24.1804 37.5455 24.544 38.392C24.9134 39.2386 25.4304 39.8807 26.0952 40.3182C26.7599 40.7557 27.5384 40.9744 28.4304 40.9744C29.3224 40.9744 30.1009 40.7557 30.7656 40.3182C31.4304 39.8807 31.9446 39.2386 32.3082 38.392C32.6776 37.5455 32.8622 36.5057 32.8622 35.2727ZM53.9368 26.5455V44H50.7493L43.1555 33.0142H43.0277V44H39.3374V26.5455H42.576L50.1101 37.5227H50.2635V26.5455H53.9368ZM63.1733 44H56.9858V26.5455H63.2244C64.9801 26.5455 66.4915 26.8949 67.7585 27.5938C69.0256 28.2869 70 29.2841 70.6818 30.5852C71.3693 31.8864 71.7131 33.4432 71.7131 35.2557C71.7131 37.0739 71.3693 38.6364 70.6818 39.9432C70 41.25 69.0199 42.2528 67.7415 42.9517C66.4688 43.6506 64.946 44 63.1733 44ZM60.6761 40.8381H63.0199C64.1108 40.8381 65.0284 40.6449 65.7727 40.2585C66.5227 39.8665 67.0852 39.2614 67.4602 38.4432C67.8409 37.6193 68.0312 36.5568 68.0312 35.2557C68.0312 33.9659 67.8409 32.9119 67.4602 32.0938C67.0852 31.2756 66.5256 30.6733 65.7812 30.2869C65.0369 29.9006 64.1193 29.7074 63.0284 29.7074H60.6761V40.8381ZM78.1371 26.5455V44H74.4467V26.5455H78.1371ZM81.1733 26.5455H85.7244L90.5312 38.2727H90.7358L95.5426 26.5455H100.094V44H96.5142V32.6392H96.3693L91.8523 43.9148H89.4148L84.8977 32.5966H84.7528V44H81.1733V26.5455ZM103.134 44V26.5455H114.896V29.5881H106.825V33.7472H114.29V36.7898H106.825V40.9574H114.93V44H103.134ZM132.429 26.5455V44H129.241L121.648 33.0142H121.52V44H117.83V26.5455H121.068L128.602 37.5227H128.756V26.5455H132.429ZM134.813 29.5881V26.5455H149.148V29.5881H143.805V44H140.157V29.5881H134.813ZM160.978 31.5653C160.91 30.8778 160.617 30.3437 160.1 29.9631C159.583 29.5824 158.881 29.392 157.995 29.392C157.393 29.392 156.884 29.4773 156.469 29.6477C156.055 29.8125 155.737 30.0426 155.515 30.3381C155.299 30.6335 155.191 30.9688 155.191 31.3438C155.18 31.6562 155.245 31.929 155.387 32.1619C155.535 32.3949 155.737 32.5966 155.992 32.767C156.248 32.9318 156.543 33.0767 156.879 33.2017C157.214 33.321 157.572 33.4233 157.952 33.5085L159.521 33.8835C160.282 34.054 160.981 34.2812 161.617 34.5653C162.254 34.8494 162.805 35.1989 163.271 35.6136C163.737 36.0284 164.097 36.517 164.353 37.0795C164.614 37.642 164.748 38.2869 164.754 39.0142C164.748 40.0824 164.475 41.0085 163.935 41.7926C163.401 42.571 162.629 43.1761 161.617 43.608C160.612 44.0341 159.398 44.2472 157.978 44.2472C156.569 44.2472 155.342 44.0312 154.296 43.5994C153.256 43.1676 152.444 42.5284 151.859 41.6818C151.279 40.8295 150.975 39.7756 150.947 38.5199H154.518C154.558 39.1051 154.725 39.5937 155.021 39.9858C155.322 40.3722 155.722 40.6648 156.222 40.8636C156.728 41.0568 157.299 41.1534 157.935 41.1534C158.56 41.1534 159.103 41.0625 159.563 40.8807C160.029 40.6989 160.39 40.446 160.646 40.1222C160.901 39.7983 161.029 39.4261 161.029 39.0057C161.029 38.6136 160.913 38.2841 160.68 38.017C160.452 37.75 160.117 37.5227 159.674 37.3352C159.237 37.1477 158.7 36.9773 158.063 36.8239L156.163 36.3466C154.691 35.9886 153.529 35.429 152.677 34.6676C151.825 33.9062 151.401 32.8807 151.407 31.5909C151.401 30.5341 151.683 29.6108 152.251 28.821C152.825 28.0312 153.612 27.4148 154.612 26.9716C155.612 26.5284 156.748 26.3068 158.021 26.3068C159.316 26.3068 160.447 26.5284 161.413 26.9716C162.384 27.4148 163.14 28.0312 163.68 28.821C164.219 29.6108 164.498 30.5256 164.515 31.5653H160.978Z" fill="#327952"/>
</g>
<defs>
<filter id="filter0_i_117_130" x="2.21021" y="26.3069" width="162.543" height="21.9402" filterUnits="userSpaceOnUse" color-interpolation-filters="sRGB">
<feFlood flood-opacity="0" result="BackgroundImageFix"/>
<feBlend mode="normal" in="SourceGraphic" in2="BackgroundImageFix" result="shape"/>
<feColorMatrix in="SourceAlpha" type="matrix" values="0 0 0 0 0 0 0 0 0 0 0 0 0 0 0 0 0 0 127 0" result="hardAlpha"/>
<feOffset dy="4"/>
<feGaussianBlur stdDeviation="2"/>
<feComposite in2="hardAlpha" operator="arithmetic" k2="-1" k3="1"/>
<feColorMatrix type="matrix" values="0 0 0 0 0 0 0 0 0 0 0 0 0 0 0 0 0 0 0.25 0"/>
<feBlend mode="normal" in2="shape" result="effect1_innerShadow_117_130"/>
</filter>
</defs>
</svg>
