<svg width="140" height="109" viewBox="0 0 140 109" fill="none" xmlns="http://www.w3.org/2000/svg">
<rect width="140" height="109" rx="10" fill="#6C522D"/>
<g filter="url(#filter0_i_106_138)">
<path d="M24 16.7578C23.8359 16.1875 23.6055 15.6836 23.3086 15.2461C23.0117 14.8008 22.6484 14.4258 22.2188 14.1211C21.7969 13.8086 21.3125 13.5703 20.7656 13.4062C20.2266 13.2422 19.6289 13.1602 18.9727 13.1602C17.7461 13.1602 16.668 13.4648 15.7383 14.0742C14.8164 14.6836 14.0977 15.5703 13.582 16.7344C13.0664 17.8906 12.8086 19.3047 12.8086 20.9766C12.8086 22.6484 13.0625 24.0703 13.5703 25.2422C14.0781 26.4141 14.7969 27.3086 15.7266 27.9258C16.6562 28.5352 17.7539 28.8398 19.0195 28.8398C20.168 28.8398 21.1484 28.6367 21.9609 28.2305C22.7813 27.8164 23.4063 27.2344 23.8359 26.4844C24.2734 25.7344 24.4922 24.8477 24.4922 23.8242L25.5234 23.9766H19.3359V20.1562H29.3789V23.1797C29.3789 25.2891 28.9336 27.1016 28.043 28.6172C27.1523 30.125 25.9258 31.2891 24.3633 32.1094C22.8008 32.9219 21.0117 33.3281 18.9961 33.3281C16.7461 33.3281 14.7695 32.832 13.0664 31.8398C11.3633 30.8398 10.0352 29.4219 9.08203 27.5859C8.13672 25.7422 7.66406 23.5547 7.66406 21.0234C7.66406 19.0781 7.94531 17.3437 8.50781 15.8203C9.07813 14.2891 9.875 12.9922 10.8984 11.9297C11.9219 10.8672 13.1133 10.0586 14.4727 9.50391C15.832 8.94922 17.3047 8.67187 18.8906 8.67187C20.25 8.67187 21.5156 8.87109 22.6875 9.26953C23.8594 9.66016 24.8984 10.2148 25.8047 10.9336C26.7188 11.6523 27.4648 12.5078 28.043 13.5C28.6211 14.4844 28.9922 15.5703 29.1563 16.7578H24ZM33.1904 33V9H42.6592C44.4717 9 46.0186 9.32422 47.2998 9.97266C48.5889 10.6133 49.5693 11.5234 50.2412 12.7031C50.9209 13.875 51.2607 15.2539 51.2607 16.8398C51.2607 18.4336 50.917 19.8047 50.2295 20.9531C49.542 22.0937 48.5459 22.9687 47.2412 23.5781C45.9443 24.1875 44.374 24.4922 42.5303 24.4922H36.1904V20.4141H41.71C42.6787 20.4141 43.4834 20.2812 44.124 20.0156C44.7646 19.75 45.2412 19.3516 45.5537 18.8203C45.874 18.2891 46.0342 17.6289 46.0342 16.8398C46.0342 16.043 45.874 15.3711 45.5537 14.8242C45.2412 14.2773 44.7607 13.8633 44.1123 13.582C43.4717 13.293 42.6631 13.1484 41.6865 13.1484H38.2646V33H33.1904ZM46.1514 22.0781L52.1162 33H46.5146L40.6787 22.0781H46.1514ZM58.9834 33H53.5459L61.8311 9H68.3701L76.6436 33H71.2061L65.1943 14.4844H65.0068L58.9834 33ZM58.6436 23.5664H71.4873V27.5273H58.6436V23.5664ZM84.6064 9V33H79.5322V9H84.6064ZM108.855 9V33H104.473L94.0313 17.8945H93.8555V33H88.7812V9H93.2344L103.594 24.0937H103.805V9H108.855ZM126.067 15.9023C125.974 14.957 125.571 14.2227 124.86 13.6992C124.149 13.1758 123.185 12.9141 121.966 12.9141C121.138 12.9141 120.438 13.0312 119.868 13.2656C119.298 13.4922 118.86 13.8086 118.556 14.2148C118.259 14.6211 118.11 15.082 118.11 15.5977C118.095 16.0273 118.185 16.4023 118.38 16.7227C118.583 17.043 118.86 17.3203 119.212 17.5547C119.563 17.7812 119.97 17.9805 120.431 18.1523C120.892 18.3164 121.384 18.457 121.907 18.5742L124.063 19.0898C125.11 19.3242 126.071 19.6367 126.946 20.0273C127.821 20.418 128.579 20.8984 129.22 21.4687C129.86 22.0391 130.356 22.7109 130.708 23.4844C131.067 24.2578 131.251 25.1445 131.259 26.1445C131.251 27.6133 130.876 28.8867 130.134 29.9648C129.399 31.0352 128.337 31.8672 126.946 32.4609C125.563 33.0469 123.896 33.3398 121.942 33.3398C120.005 33.3398 118.317 33.043 116.88 32.4492C115.45 31.8555 114.333 30.9766 113.528 29.8125C112.731 28.6406 112.313 27.1914 112.274 25.4648H117.185C117.239 26.2695 117.47 26.9414 117.876 27.4805C118.29 28.0117 118.841 28.4141 119.528 28.6875C120.224 28.9531 121.009 29.0859 121.884 29.0859C122.743 29.0859 123.489 28.9609 124.122 28.7109C124.763 28.4609 125.259 28.1133 125.61 27.668C125.962 27.2227 126.138 26.7109 126.138 26.1328C126.138 25.5937 125.978 25.1406 125.657 24.7734C125.345 24.4062 124.884 24.0937 124.274 23.8359C123.673 23.5781 122.935 23.3437 122.06 23.1328L119.446 22.4766C117.423 21.9844 115.825 21.2148 114.653 20.168C113.481 19.1211 112.899 17.7109 112.907 15.9375C112.899 14.4844 113.286 13.2148 114.067 12.1289C114.856 11.043 115.938 10.1953 117.313 9.58594C118.688 8.97656 120.251 8.67187 122.001 8.67187C123.782 8.67187 125.337 8.97656 126.665 9.58594C128.001 10.1953 129.04 11.043 129.782 12.1289C130.524 13.2148 130.907 14.4727 130.931 15.9023H126.067Z" fill="#4F2F13"/>
</g>
<g filter="url(#filter1_i_106_138)">
<path d="M24 49.7578C23.8359 49.1875 23.6055 48.6836 23.3086 48.2461C23.0117 47.8008 22.6484 47.4258 22.2188 47.1211C21.7969 46.8086 21.3125 46.5703 20.7656 46.4062C20.2266 46.2422 19.6289 46.1602 18.9727 46.1602C17.7461 46.1602 16.668 46.4648 15.7383 47.0742C14.8164 47.6836 14.0977 48.5703 13.582 49.7344C13.0664 50.8906 12.8086 52.3047 12.8086 53.9766C12.8086 55.6484 13.0625 57.0703 13.5703 58.2422C14.0781 59.4141 14.7969 60.3086 15.7266 60.9258C16.6562 61.5352 17.7539 61.8398 19.0195 61.8398C20.168 61.8398 21.1484 61.6367 21.9609 61.2305C22.7813 60.8164 23.4063 60.2344 23.8359 59.4844C24.2734 58.7344 24.4922 57.8477 24.4922 56.8242L25.5234 56.9766H19.3359V53.1562H29.3789V56.1797C29.3789 58.2891 28.9336 60.1016 28.043 61.6172C27.1523 63.125 25.9258 64.2891 24.3633 65.1094C22.8008 65.9219 21.0117 66.3281 18.9961 66.3281C16.7461 66.3281 14.7695 65.832 13.0664 64.8398C11.3633 63.8398 10.0352 62.4219 9.08203 60.5859C8.13672 58.7422 7.66406 56.5547 7.66406 54.0234C7.66406 52.0781 7.94531 50.3437 8.50781 48.8203C9.07813 47.2891 9.875 45.9922 10.8984 44.9297C11.9219 43.8672 13.1133 43.0586 14.4727 42.5039C15.832 41.9492 17.3047 41.6719 18.8906 41.6719C20.25 41.6719 21.5156 41.8711 22.6875 42.2695C23.8594 42.6602 24.8984 43.2148 25.8047 43.9336C26.7188 44.6523 27.4648 45.5078 28.043 46.5C28.6211 47.4844 28.9922 48.5703 29.1563 49.7578H24ZM33.1904 66V42H42.6592C44.4717 42 46.0186 42.3242 47.2998 42.9727C48.5889 43.6133 49.5693 44.5234 50.2412 45.7031C50.9209 46.875 51.2607 48.2539 51.2607 49.8398C51.2607 51.4336 50.917 52.8047 50.2295 53.9531C49.542 55.0937 48.5459 55.9687 47.2412 56.5781C45.9443 57.1875 44.374 57.4922 42.5303 57.4922H36.1904V53.4141H41.71C42.6787 53.4141 43.4834 53.2812 44.124 53.0156C44.7646 52.75 45.2412 52.3516 45.5537 51.8203C45.874 51.2891 46.0342 50.6289 46.0342 49.8398C46.0342 49.043 45.874 48.3711 45.5537 47.8242C45.2412 47.2773 44.7607 46.8633 44.1123 46.582C43.4717 46.293 42.6631 46.1484 41.6865 46.1484H38.2646V66H33.1904ZM46.1514 55.0781L52.1162 66H46.5146L40.6787 55.0781H46.1514ZM58.9834 66H53.5459L61.8311 42H68.3701L76.6436 66H71.2061L65.1943 47.4844H65.0068L58.9834 66ZM58.6436 56.5664H71.4873V60.5273H58.6436V56.5664ZM84.6064 42V66H79.5322V42H84.6064ZM108.855 42V66H104.473L94.0313 50.8945H93.8555V66H88.7812V42H93.2344L103.594 57.0937H103.805V42H108.855ZM126.067 48.9023C125.974 47.957 125.571 47.2227 124.86 46.6992C124.149 46.1758 123.185 45.9141 121.966 45.9141C121.138 45.9141 120.438 46.0312 119.868 46.2656C119.298 46.4922 118.86 46.8086 118.556 47.2148C118.259 47.6211 118.11 48.082 118.11 48.5977C118.095 49.0273 118.185 49.4023 118.38 49.7227C118.583 50.043 118.86 50.3203 119.212 50.5547C119.563 50.7812 119.97 50.9805 120.431 51.1523C120.892 51.3164 121.384 51.457 121.907 51.5742L124.063 52.0898C125.11 52.3242 126.071 52.6367 126.946 53.0273C127.821 53.418 128.579 53.8984 129.22 54.4687C129.86 55.0391 130.356 55.7109 130.708 56.4844C131.067 57.2578 131.251 58.1445 131.259 59.1445C131.251 60.6133 130.876 61.8867 130.134 62.9648C129.399 64.0352 128.337 64.8672 126.946 65.4609C125.563 66.0469 123.896 66.3398 121.942 66.3398C120.005 66.3398 118.317 66.043 116.88 65.4492C115.45 64.8555 114.333 63.9766 113.528 62.8125C112.731 61.6406 112.313 60.1914 112.274 58.4648H117.185C117.239 59.2695 117.47 59.9414 117.876 60.4805C118.29 61.0117 118.841 61.4141 119.528 61.6875C120.224 61.9531 121.009 62.0859 121.884 62.0859C122.743 62.0859 123.489 61.9609 124.122 61.7109C124.763 61.4609 125.259 61.1133 125.61 60.668C125.962 60.2227 126.138 59.7109 126.138 59.1328C126.138 58.5937 125.978 58.1406 125.657 57.7734C125.345 57.4062 124.884 57.0937 124.274 56.8359C123.673 56.5781 122.935 56.3437 122.06 56.1328L119.446 55.4766C117.423 54.9844 115.825 54.2148 114.653 53.168C113.481 52.1211 112.899 50.7109 112.907 48.9375C112.899 47.4844 113.286 46.2148 114.067 45.1289C114.856 44.043 115.938 43.1953 117.313 42.5859C118.688 41.9766 120.251 41.6719 122.001 41.6719C123.782 41.6719 125.337 41.9766 126.665 42.5859C128.001 43.1953 129.04 44.043 129.782 45.1289C130.524 46.2148 130.907 47.4727 130.931 48.9023H126.067Z" fill="#4F2F13"/>
</g>
<g filter="url(#filter2_i_106_138)">
<path d="M24 82.7578C23.8359 82.1875 23.6055 81.6836 23.3086 81.2461C23.0117 80.8008 22.6484 80.4258 22.2188 80.1211C21.7969 79.8086 21.3125 79.5703 20.7656 79.4062C20.2266 79.2422 19.6289 79.1602 18.9727 79.1602C17.7461 79.1602 16.668 79.4648 15.7383 80.0742C14.8164 80.6836 14.0977 81.5703 13.582 82.7344C13.0664 83.8906 12.8086 85.3047 12.8086 86.9766C12.8086 88.6484 13.0625 90.0703 13.5703 91.2422C14.0781 92.4141 14.7969 93.3086 15.7266 93.9258C16.6562 94.5352 17.7539 94.8398 19.0195 94.8398C20.168 94.8398 21.1484 94.6367 21.9609 94.2305C22.7813 93.8164 23.4063 93.2344 23.8359 92.4844C24.2734 91.7344 24.4922 90.8477 24.4922 89.8242L25.5234 89.9766H19.3359V86.1562H29.3789V89.1797C29.3789 91.2891 28.9336 93.1016 28.043 94.6172C27.1523 96.125 25.9258 97.2891 24.3633 98.1094C22.8008 98.9219 21.0117 99.3281 18.9961 99.3281C16.7461 99.3281 14.7695 98.832 13.0664 97.8398C11.3633 96.8398 10.0352 95.4219 9.08203 93.5859C8.13672 91.7422 7.66406 89.5547 7.66406 87.0234C7.66406 85.0781 7.94531 83.3437 8.50781 81.8203C9.07813 80.2891 9.875 78.9922 10.8984 77.9297C11.9219 76.8672 13.1133 76.0586 14.4727 75.5039C15.832 74.9492 17.3047 74.6719 18.8906 74.6719C20.25 74.6719 21.5156 74.8711 22.6875 75.2695C23.8594 75.6602 24.8984 76.2148 25.8047 76.9336C26.7188 77.6523 27.4648 78.5078 28.043 79.5C28.6211 80.4844 28.9922 81.5703 29.1563 82.7578H24ZM33.1904 99V75H42.6592C44.4717 75 46.0186 75.3242 47.2998 75.9727C48.5889 76.6133 49.5693 77.5234 50.2412 78.7031C50.9209 79.875 51.2607 81.2539 51.2607 82.8398C51.2607 84.4336 50.917 85.8047 50.2295 86.9531C49.542 88.0937 48.5459 88.9687 47.2412 89.5781C45.9443 90.1875 44.374 90.4922 42.5303 90.4922H36.1904V86.4141H41.71C42.6787 86.4141 43.4834 86.2812 44.124 86.0156C44.7646 85.75 45.2412 85.3516 45.5537 84.8203C45.874 84.2891 46.0342 83.6289 46.0342 82.8398C46.0342 82.043 45.874 81.3711 45.5537 80.8242C45.2412 80.2773 44.7607 79.8633 44.1123 79.582C43.4717 79.293 42.6631 79.1484 41.6865 79.1484H38.2646V99H33.1904ZM46.1514 88.0781L52.1162 99H46.5146L40.6787 88.0781H46.1514ZM58.9834 99H53.5459L61.8311 75H68.3701L76.6436 99H71.2061L65.1943 80.4844H65.0068L58.9834 99ZM58.6436 89.5664H71.4873V93.5273H58.6436V89.5664ZM84.6064 75V99H79.5322V75H84.6064ZM108.855 75V99H104.473L94.0313 83.8945H93.8555V99H88.7812V75H93.2344L103.594 90.0937H103.805V75H108.855ZM126.067 81.9023C125.974 80.957 125.571 80.2227 124.86 79.6992C124.149 79.1758 123.185 78.9141 121.966 78.9141C121.138 78.9141 120.438 79.0312 119.868 79.2656C119.298 79.4922 118.86 79.8086 118.556 80.2148C118.259 80.6211 118.11 81.082 118.11 81.5977C118.095 82.0273 118.185 82.4023 118.38 82.7227C118.583 83.043 118.86 83.3203 119.212 83.5547C119.563 83.7812 119.97 83.9805 120.431 84.1523C120.892 84.3164 121.384 84.457 121.907 84.5742L124.063 85.0898C125.11 85.3242 126.071 85.6367 126.946 86.0273C127.821 86.418 128.579 86.8984 129.22 87.4687C129.86 88.0391 130.356 88.7109 130.708 89.4844C131.067 90.2578 131.251 91.1445 131.259 92.1445C131.251 93.6133 130.876 94.8867 130.134 95.9648C129.399 97.0352 128.337 97.8672 126.946 98.4609C125.563 99.0469 123.896 99.3398 121.942 99.3398C120.005 99.3398 118.317 99.043 116.88 98.4492C115.45 97.8555 114.333 96.9766 113.528 95.8125C112.731 94.6406 112.313 93.1914 112.274 91.4648H117.185C117.239 92.2695 117.47 92.9414 117.876 93.4805C118.29 94.0117 118.841 94.4141 119.528 94.6875C120.224 94.9531 121.009 95.0859 121.884 95.0859C122.743 95.0859 123.489 94.9609 124.122 94.7109C124.763 94.4609 125.259 94.1133 125.61 93.668C125.962 93.2227 126.138 92.7109 126.138 92.1328C126.138 91.5937 125.978 91.1406 125.657 90.7734C125.345 90.4062 124.884 90.0937 124.274 89.8359C123.673 89.5781 122.935 89.3437 122.06 89.1328L119.446 88.4766C117.423 87.9844 115.825 87.2148 114.653 86.168C113.481 85.1211 112.899 83.7109 112.907 81.9375C112.899 80.4844 113.286 79.2148 114.067 78.1289C114.856 77.043 115.938 76.1953 117.313 75.5859C118.688 74.9766 120.251 74.6719 122.001 74.6719C123.782 74.6719 125.337 74.9766 126.665 75.5859C128.001 76.1953 129.04 77.043 129.782 78.1289C130.524 79.2148 130.907 80.4727 130.931 81.9023H126.067Z" fill="#4F2F13"/>
</g>
<defs>
<filter id="filter0_i_106_138" x="7.66406" y="8.67188" width="123.595" height="28.668" filterUnits="userSpaceOnUse" color-interpolation-filters="sRGB">
<feFlood flood-opacity="0" result="BackgroundImageFix"/>
<feBlend mode="normal" in="SourceGraphic" in2="BackgroundImageFix" result="shape"/>
<feColorMatrix in="SourceAlpha" type="matrix" values="0 0 0 0 0 0 0 0 0 0 0 0 0 0 0 0 0 0 127 0" result="hardAlpha"/>
<feOffset dy="4"/>
<feGaussianBlur stdDeviation="2"/>
<feComposite in2="hardAlpha" operator="arithmetic" k2="-1" k3="1"/>
<feColorMatrix type="matrix" values="0 0 0 0 0 0 0 0 0 0 0 0 0 0 0 0 0 0 0.25 0"/>
<feBlend mode="normal" in2="shape" result="effect1_innerShadow_106_138"/>
</filter>
<filter id="filter1_i_106_138" x="7.66406" y="41.6719" width="123.595" height="28.668" filterUnits="userSpaceOnUse" color-interpolation-filters="sRGB">
<feFlood flood-opacity="0" result="BackgroundImageFix"/>
<feBlend mode="normal" in="SourceGraphic" in2="BackgroundImageFix" result="shape"/>
<feColorMatrix in="SourceAlpha" type="matrix" values="0 0 0 0 0 0 0 0 0 0 0 0 0 0 0 0 0 0 127 0" result="hardAlpha"/>
<feOffset dy="4"/>
<feGaussianBlur stdDeviation="2"/>
<feComposite in2="hardAlpha" operator="arithmetic" k2="-1" k3="1"/>
<feColorMatrix type="matrix" values="0 0 0 0 0 0 0 0 0 0 0 0 0 0 0 0 0 0 0.25 0"/>
<feBlend mode="normal" in2="shape" result="effect1_innerShadow_106_138"/>
</filter>
<filter id="filter2_i_106_138" x="7.66406" y="74.6719" width="123.595" height="28.668" filterUnits="userSpaceOnUse" color-interpolation-filters="sRGB">
<feFlood flood-opacity="0" result="BackgroundImageFix"/>
<feBlend mode="normal" in="SourceGraphic" in2="BackgroundImageFix" result="shape"/>
<feColorMatrix in="SourceAlpha" type="matrix" values="0 0 0 0 0 0 0 0 0 0 0 0 0 0 0 0 0 0 127 0" result="hardAlpha"/>
<feOffset dy="4"/>
<feGaussianBlur stdDeviation="2"/>
<feComposite in2="hardAlpha" operator="arithmetic" k2="-1" k3="1"/>
<feColorMatrix type="matrix" values="0 0 0 0 0 0 0 0 0 0 0 0 0 0 0 0 0 0 0.25 0"/>
<feBlend mode="normal" in2="shape" result="effect1_innerShadow_106_138"/>
</filter>
</defs>
</svg>
