<svg width="140" height="178" viewBox="0 0 140 178" fill="none" xmlns="http://www.w3.org/2000/svg">
<rect width="140" height="178" rx="10" fill="#DB5353"/>
<g filter="url(#filter0_i_106_139)">
<path d="M8.78125 168V136H29.9687V141.578H15.5469V149.203H28.5625V154.781H15.5469V168H8.78125ZM34.5195 168V136H47.1445C49.5612 136 51.6237 136.432 53.332 137.297C55.0508 138.151 56.3581 139.365 57.2539 140.938C58.1602 142.5 58.6133 144.339 58.6133 146.453C58.6133 148.578 58.1549 150.406 57.2383 151.937C56.3216 153.458 54.9935 154.625 53.2539 155.437C51.5247 156.25 49.431 156.656 46.9727 156.656H38.5195V151.219H45.8789C47.1706 151.219 48.2435 151.042 49.0977 150.688C49.9518 150.333 50.5872 149.802 51.0039 149.094C51.431 148.385 51.6445 147.505 51.6445 146.453C51.6445 145.391 51.431 144.495 51.0039 143.766C50.5872 143.036 49.9466 142.484 49.082 142.109C48.2279 141.724 47.1497 141.531 45.8477 141.531H41.2852V168H34.5195ZM51.8008 153.438L59.7539 168H52.2852L44.5039 153.438H51.8008ZM83.1602 136H89.9258V156.781C89.9258 159.115 89.3685 161.156 88.2539 162.906C87.1497 164.656 85.6029 166.021 83.6133 167C81.6237 167.969 79.306 168.453 76.6602 168.453C74.0039 168.453 71.681 167.969 69.6914 167C67.7018 166.021 66.1549 164.656 65.0508 162.906C63.9466 161.156 63.3945 159.115 63.3945 156.781V136H70.1602V156.203C70.1602 157.422 70.4258 158.505 70.957 159.453C71.4987 160.401 72.2591 161.146 73.2383 161.688C74.2174 162.229 75.3581 162.5 76.6602 162.5C77.9727 162.5 79.1133 162.229 80.082 161.688C81.0612 161.146 81.8164 160.401 82.3477 159.453C82.8893 158.505 83.1602 157.422 83.1602 156.203V136ZM102.258 136V168H95.4922V136H102.258ZM106.605 141.578V136H132.887V141.578H123.09V168H116.402V141.578H106.605Z" fill="#832C2C"/>
</g>
<g filter="url(#filter1_i_106_139)">
<path d="M8.78125 126V94H29.9687V99.5781H15.5469V107.203H28.5625V112.781H15.5469V126H8.78125ZM34.5195 126V94H47.1445C49.5612 94 51.6237 94.4323 53.332 95.2969C55.0508 96.151 56.3581 97.3646 57.2539 98.9375C58.1602 100.5 58.6133 102.339 58.6133 104.453C58.6133 106.578 58.1549 108.406 57.2383 109.937C56.3216 111.458 54.9935 112.625 53.2539 113.437C51.5247 114.25 49.431 114.656 46.9727 114.656H38.5195V109.219H45.8789C47.1706 109.219 48.2435 109.042 49.0977 108.688C49.9518 108.333 50.5872 107.802 51.0039 107.094C51.431 106.385 51.6445 105.505 51.6445 104.453C51.6445 103.391 51.431 102.495 51.0039 101.766C50.5872 101.036 49.9466 100.484 49.082 100.109C48.2279 99.724 47.1497 99.5312 45.8477 99.5312H41.2852V126H34.5195ZM51.8008 111.438L59.7539 126H52.2852L44.5039 111.438H51.8008ZM83.1602 94H89.9258V114.781C89.9258 117.115 89.3685 119.156 88.2539 120.906C87.1497 122.656 85.6029 124.021 83.6133 125C81.6237 125.969 79.306 126.453 76.6602 126.453C74.0039 126.453 71.681 125.969 69.6914 125C67.7018 124.021 66.1549 122.656 65.0508 120.906C63.9466 119.156 63.3945 117.115 63.3945 114.781V94H70.1602V114.203C70.1602 115.422 70.4258 116.505 70.957 117.453C71.4987 118.401 72.2591 119.146 73.2383 119.688C74.2174 120.229 75.3581 120.5 76.6602 120.5C77.9727 120.5 79.1133 120.229 80.082 119.688C81.0612 119.146 81.8164 118.401 82.3477 117.453C82.8893 116.505 83.1602 115.422 83.1602 114.203V94ZM102.258 94V126H95.4922V94H102.258ZM106.605 99.5781V94H132.887V99.5781H123.09V126H116.402V99.5781H106.605Z" fill="#832C2C"/>
</g>
<g filter="url(#filter2_i_106_139)">
<path d="M8.78125 85V53H29.9687V58.5781H15.5469V66.2031H28.5625V71.7812H15.5469V85H8.78125ZM34.5195 85V53H47.1445C49.5612 53 51.6237 53.4323 53.332 54.2969C55.0508 55.151 56.3581 56.3646 57.2539 57.9375C58.1602 59.5 58.6133 61.3385 58.6133 63.4531C58.6133 65.5781 58.1549 67.4062 57.2383 68.9375C56.3216 70.4583 54.9935 71.625 53.2539 72.4375C51.5247 73.25 49.431 73.6562 46.9727 73.6562H38.5195V68.2187H45.8789C47.1706 68.2187 48.2435 68.0417 49.0977 67.6875C49.9518 67.3333 50.5872 66.8021 51.0039 66.0938C51.431 65.3854 51.6445 64.5052 51.6445 63.4531C51.6445 62.3906 51.431 61.4948 51.0039 60.7656C50.5872 60.0365 49.9466 59.4844 49.082 59.1094C48.2279 58.724 47.1497 58.5312 45.8477 58.5312H41.2852V85H34.5195ZM51.8008 70.4375L59.7539 85H52.2852L44.5039 70.4375H51.8008ZM83.1602 53H89.9258V73.7812C89.9258 76.1146 89.3685 78.1562 88.2539 79.9062C87.1497 81.6562 85.6029 83.0208 83.6133 84C81.6237 84.9688 79.306 85.4531 76.6602 85.4531C74.0039 85.4531 71.681 84.9688 69.6914 84C67.7018 83.0208 66.1549 81.6562 65.0508 79.9062C63.9466 78.1562 63.3945 76.1146 63.3945 73.7812V53H70.1602V73.2031C70.1602 74.4219 70.4258 75.5052 70.957 76.4531C71.4987 77.401 72.2591 78.1458 73.2383 78.6875C74.2174 79.2292 75.3581 79.5 76.6602 79.5C77.9727 79.5 79.1133 79.2292 80.082 78.6875C81.0612 78.1458 81.8164 77.401 82.3477 76.4531C82.8893 75.5052 83.1602 74.4219 83.1602 73.2031V53ZM102.258 53V85H95.4922V53H102.258ZM106.605 58.5781V53H132.887V58.5781H123.09V85H116.402V58.5781H106.605Z" fill="#832C2C"/>
</g>
<g filter="url(#filter3_i_106_139)">
<path d="M8.78125 45V13H29.9687V18.5781H15.5469V26.2031H28.5625V31.7812H15.5469V45H8.78125ZM34.5195 45V13H47.1445C49.5612 13 51.6237 13.4323 53.332 14.2969C55.0508 15.151 56.3581 16.3646 57.2539 17.9375C58.1602 19.5 58.6133 21.3385 58.6133 23.4531C58.6133 25.5781 58.1549 27.4062 57.2383 28.9375C56.3216 30.4583 54.9935 31.625 53.2539 32.4375C51.5247 33.25 49.431 33.6562 46.9727 33.6562H38.5195V28.2187H45.8789C47.1706 28.2187 48.2435 28.0417 49.0977 27.6875C49.9518 27.3333 50.5872 26.8021 51.0039 26.0938C51.431 25.3854 51.6445 24.5052 51.6445 23.4531C51.6445 22.3906 51.431 21.4948 51.0039 20.7656C50.5872 20.0365 49.9466 19.4844 49.082 19.1094C48.2279 18.724 47.1497 18.5312 45.8477 18.5312H41.2852V45H34.5195ZM51.8008 30.4375L59.7539 45H52.2852L44.5039 30.4375H51.8008ZM83.1602 13H89.9258V33.7812C89.9258 36.1146 89.3685 38.1562 88.2539 39.9062C87.1497 41.6562 85.6029 43.0208 83.6133 44C81.6237 44.9688 79.306 45.4531 76.6602 45.4531C74.0039 45.4531 71.681 44.9688 69.6914 44C67.7018 43.0208 66.1549 41.6562 65.0508 39.9062C63.9466 38.1562 63.3945 36.1146 63.3945 33.7812V13H70.1602V33.2031C70.1602 34.4219 70.4258 35.5052 70.957 36.4531C71.4987 37.401 72.2591 38.1458 73.2383 38.6875C74.2174 39.2292 75.3581 39.5 76.6602 39.5C77.9727 39.5 79.1133 39.2292 80.082 38.6875C81.0612 38.1458 81.8164 37.401 82.3477 36.4531C82.8893 35.5052 83.1602 34.4219 83.1602 33.2031V13ZM102.258 13V45H95.4922V13H102.258ZM106.605 18.5781V13H132.887V18.5781H123.09V45H116.402V18.5781H106.605Z" fill="#832C2C"/>
</g>
<defs>
<filter id="filter0_i_106_139" x="8.78125" y="136" width="124.105" height="36.4531" filterUnits="userSpaceOnUse" color-interpolation-filters="sRGB">
<feFlood flood-opacity="0" result="BackgroundImageFix"/>
<feBlend mode="normal" in="SourceGraphic" in2="BackgroundImageFix" result="shape"/>
<feColorMatrix in="SourceAlpha" type="matrix" values="0 0 0 0 0 0 0 0 0 0 0 0 0 0 0 0 0 0 127 0" result="hardAlpha"/>
<feOffset dy="4"/>
<feGaussianBlur stdDeviation="2"/>
<feComposite in2="hardAlpha" operator="arithmetic" k2="-1" k3="1"/>
<feColorMatrix type="matrix" values="0 0 0 0 0 0 0 0 0 0 0 0 0 0 0 0 0 0 0.25 0"/>
<feBlend mode="normal" in2="shape" result="effect1_innerShadow_106_139"/>
</filter>
<filter id="filter1_i_106_139" x="8.78125" y="94" width="124.105" height="36.4531" filterUnits="userSpaceOnUse" color-interpolation-filters="sRGB">
<feFlood flood-opacity="0" result="BackgroundImageFix"/>
<feBlend mode="normal" in="SourceGraphic" in2="BackgroundImageFix" result="shape"/>
<feColorMatrix in="SourceAlpha" type="matrix" values="0 0 0 0 0 0 0 0 0 0 0 0 0 0 0 0 0 0 127 0" result="hardAlpha"/>
<feOffset dy="4"/>
<feGaussianBlur stdDeviation="2"/>
<feComposite in2="hardAlpha" operator="arithmetic" k2="-1" k3="1"/>
<feColorMatrix type="matrix" values="0 0 0 0 0 0 0 0 0 0 0 0 0 0 0 0 0 0 0.25 0"/>
<feBlend mode="normal" in2="shape" result="effect1_innerShadow_106_139"/>
</filter>
<filter id="filter2_i_106_139" x="8.78125" y="53" width="124.105" height="36.4531" filterUnits="userSpaceOnUse" color-interpolation-filters="sRGB">
<feFlood flood-opacity="0" result="BackgroundImageFix"/>
<feBlend mode="normal" in="SourceGraphic" in2="BackgroundImageFix" result="shape"/>
<feColorMatrix in="SourceAlpha" type="matrix" values="0 0 0 0 0 0 0 0 0 0 0 0 0 0 0 0 0 0 127 0" result="hardAlpha"/>
<feOffset dy="4"/>
<feGaussianBlur stdDeviation="2"/>
<feComposite in2="hardAlpha" operator="arithmetic" k2="-1" k3="1"/>
<feColorMatrix type="matrix" values="0 0 0 0 0 0 0 0 0 0 0 0 0 0 0 0 0 0 0.25 0"/>
<feBlend mode="normal" in2="shape" result="effect1_innerShadow_106_139"/>
</filter>
<filter id="filter3_i_106_139" x="8.78125" y="13" width="124.105" height="36.4531" filterUnits="userSpaceOnUse" color-interpolation-filters="sRGB">
<feFlood flood-opacity="0" result="BackgroundImageFix"/>
<feBlend mode="normal" in="SourceGraphic" in2="BackgroundImageFix" result="shape"/>
<feColorMatrix in="SourceAlpha" type="matrix" values="0 0 0 0 0 0 0 0 0 0 0 0 0 0 0 0 0 0 127 0" result="hardAlpha"/>
<feOffset dy="4"/>
<feGaussianBlur stdDeviation="2"/>
<feComposite in2="hardAlpha" operator="arithmetic" k2="-1" k3="1"/>
<feColorMatrix type="matrix" values="0 0 0 0 0 0 0 0 0 0 0 0 0 0 0 0 0 0 0.25 0"/>
<feBlend mode="normal" in2="shape" result="effect1_innerShadow_106_139"/>
</filter>
</defs>
</svg>
